  0
SECTION
  2
HEADER
  9
$ACADVER
  1
AC1024
  9
$ACADMAINTVER
 70
     6
  9
$DWGCODEPAGE
  3
ASCII
  9
$INSBASE
 10
0.0
 20
0.0
 30
0.0
  9
$EXTMIN
 10
1.000000000000000E+20
 20
1.000000000000000E+20
 30
1.000000000000000E+20
  9
$EXTMAX
 10
-1.000000000000000E+20
 20
-1.000000000000000E+20
 30
-1.000000000000000E+20
  9
$LIMMIN
 10
0.0
 20
0.0
  9
$LIMMAX
 10
12.0
 20
9.0
  9
$ORTHOMODE
 70
     0
  9
$REGENMODE
 70
     1
  9
$FILLMODE
 70
     1
  9
$QTEXTMODE
 70
     0
  9
$MIRRTEXT
 70
     1
  9
$LTSCALE
 40
1.0
  9
$ATTMODE
 70
     1
  9
$TEXTSIZE
 40
0.2
  9
$TRACEWID
 40
0.05
  9
$TEXTSTYLE
  7
Standard
  9
$CLAYER
  8
0
  9
$CELTYPE
  6
ByLayer
  9
$CECOLOR
 62
   178
  9
$CELTSCALE
 40
1.0
  9
$DISPSILH
 70
     0
  9
$DIMSCALE
 40
1.0
  9
$DIMASZ
 40
2.5
  9
$DIMEXO
 40
0.625
  9
$DIMDLI
 40
0.38
  9
$DIMRND
 40
0.0
  9
$DIMDLE
 40
0.0
  9
$DIMEXE
 40
1.25
  9
$DIMTP
 40
0.0
  9
$DIMTM
 40
0.0
  9
$DIMTXT
 40
2.5
  9
$DIMCEN
 40
0.09
  9
$DIMTSZ
 40
0.0
  9
$DIMTOL
 70
     0
  9
$DIMLIM
 70
     0
  9
$DIMTIH
 70
     1
  9
$DIMTOH
 70
     1
  9
$DIMSE1
 70
     0
  9
$DIMSE2
 70
     0
  9
$DIMTAD
 70
     0
  9
$DIMZIN
 70
     8
  9
$DIMBLK
  1

  9
$DIMASO
 70
     1
  9
$DIMSHO
 70
     1
  9
$DIMPOST
  1

  9
$DIMAPOST
  1

  9
$DIMALT
 70
     0
  9
$DIMALTD
 70
     2
  9
$DIMALTF
 40
25.4
  9
$DIMLFAC
 40
1.0
  9
$DIMTOFL
 70
     0
  9
$DIMTVP
 40
0.0
  9
$DIMTIX
 70
     0
  9
$DIMSOXD
 70
     0
  9
$DIMSAH
 70
     0
  9
$DIMBLK1
  1

  9
$DIMBLK2
  1

  9
$DIMSTYLE
  2
Standard
  9
$DIMCLRD
 70
   178
  9
$DIMCLRE
 70
   178
  9
$DIMCLRT
 70
   178
  9
$DIMTFAC
 40
1.0
  9
$DIMGAP
 40
0.625
  9
$DIMJUST
 70
     0
  9
$DIMSD1
 70
     0
  9
$DIMSD2
 70
     0
  9
$DIMTOLJ
 70
     1
  9
$DIMTZIN
 70
     0
  9
$DIMALTZ
 70
     0
  9
$DIMALTTZ
 70
     0
  9
$DIMUPT
 70
     0
  9
$DIMDEC
 70
     4
  9
$DIMTDEC
 70
     4
  9
$DIMALTU
 70
     2
  9
$DIMALTTD
 70
     2
  9
$DIMTXSTY
  7
Standard
  9
$DIMAUNIT
 70
     0
  9
$DIMADEC
 70
     0
  9
$DIMALTRND
 40
0.0
  9
$DIMAZIN
 70
     2
  9
$DIMDSEP
 70
    46
  9
$DIMATFIT
 70
     3
  9
$DIMFRAC
 70
     0
  9
$DIMLDRBLK
  1

  9
$DIMLUNIT
 70
     2
  9
$DIMLWD
 70
    -2
  9
$DIMLWE
 70
    -2
  9
$DIMTMOVE
 70
     0
  9
$DIMFXL
 40
1.0
  9
$DIMFXLON
 70
     0
  9
$DIMJOGANG
 40
0.7853981633974483
  9
$DIMTFILL
 70
     0
  9
$DIMTFILLCLR
 70
     0
  9
$DIMARCSYM
 70
     0
  9
$DIMLTYPE
  6

  9
$DIMLTEX1
  6

  9
$DIMLTEX2
  6

  9
$DIMTXTDIRECTION
 70
     0
  9
$LUNITS
 70
     2
  9
$LUPREC
 70
     4
  9
$SKETCHINC
 40
0.1
  9
$FILLETRAD
 40
0.5
  9
$AUNITS
 70
     0
  9
$AUPREC
 70
     0
  9
$MENU
  1
.
  9
$ELEVATION
 40
0.0
  9
$PELEVATION
 40
0.0
  9
$THICKNESS
 40
0.0
  9
$LIMCHECK
 70
     0
  9
$CHAMFERA
 40
0.5
  9
$CHAMFERB
 40
0.5
  9
$CHAMFERC
 40
1.0
  9
$CHAMFERD
 40
0.0
  9
$SKPOLY
 70
     0
  9
$TDCREATE
 40
2455956.171307859
  9
$TDUCREATE
 40
2455956.17130787
  9
$TDUPDATE
 40
2455956.171307859
  9
$TDUUPDATE
 40
2455956.17130787
  9
$TDINDWG
 40
0.0000000116
  9
$TDUSRTIMER
 40
0.0000000116
  9
$USRTIMER
 70
     1
  9
$ANGBASE
 50
0.0
  9
$ANGDIR
 70
     0
  9
$PDMODE
 70
     0
  9
$PDSIZE
 40
0.0
  9
$PLINEWID
 40
0.0
  9
$SPLFRAME
 70
     0
  9
$SPLINETYPE
 70
     6
  9
$SPLINESEGS
 70
     8
  9
$HANDSEED
  5
2C6
  9
$SURFTAB1
 70
     6
  9
$SURFTAB2
 70
     6
  9
$SURFTYPE
 70
     6
  9
$SURFU
 70
     6
  9
$SURFV
 70
     6
  9
$UCSBASE
  2

  9
$UCSNAME
  2

  9
$UCSORG
 10
0.0
 20
0.0
 30
0.0
  9
$UCSXDIR
 10
1.0
 20
0.0
 30
0.0
  9
$UCSYDIR
 10
0.0
 20
1.0
 30
0.0
  9
$UCSORTHOREF
  2

  9
$UCSORTHOVIEW
 70
     0
  9
$UCSORGTOP
 10
0.0
 20
0.0
 30
0.0
  9
$UCSORGBOTTOM
 10
0.0
 20
0.0
 30
0.0
  9
$UCSORGLEFT
 10
0.0
 20
0.0
 30
0.0
  9
$UCSORGRIGHT
 10
0.0
 20
0.0
 30
0.0
  9
$UCSORGFRONT
 10
0.0
 20
0.0
 30
0.0
  9
$UCSORGBACK
 10
0.0
 20
0.0
 30
0.0
  9
$PUCSBASE
  2

  9
$PUCSNAME
  2

  9
$PUCSORG
 10
0.0
 20
0.0
 30
0.0
  9
$PUCSXDIR
 10
1.0
 20
0.0
 30
0.0
  9
$PUCSYDIR
 10
0.0
 20
1.0
 30
0.0
  9
$PUCSORTHOREF
  2

  9
$PUCSORTHOVIEW
 70
     0
  9
$PUCSORGTOP
 10
0.0
 20
0.0
 30
0.0
  9
$PUCSORGBOTTOM
 10
0.0
 20
0.0
 30
0.0
  9
$PUCSORGLEFT
 10
0.0
 20
0.0
 30
0.0
  9
$PUCSORGRIGHT
 10
0.0
 20
0.0
 30
0.0
  9
$PUCSORGFRONT
 10
0.0
 20
0.0
 30
0.0
  9
$PUCSORGBACK
 10
0.0
 20
0.0
 30
0.0
  9
$USERI1
 70
     0
  9
$USERI2
 70
     0
  9
$USERI3
 70
     0
  9
$USERI4
 70
     0
  9
$USERI5
 70
     0
  9
$USERR1
 40
0.0
  9
$USERR2
 40
0.0
  9
$USERR3
 40
0.0
  9
$USERR4
 40
0.0
  9
$USERR5
 40
0.0
  9
$WORLDVIEW
 70
     1
  9
$SHADEDGE
 70
     3
  9
$SHADEDIF
 70
    70
  9
$TILEMODE
 70
     1
  9
$MAXACTVP
 70
    64
  9
$PINSBASE
 10
0.0
 20
0.0
 30
0.0
  9
$PLIMCHECK
 70
     0
  9
$PEXTMIN
 10
1.000000000000000E+20
 20
1.000000000000000E+20
 30
1.000000000000000E+20
  9
$PEXTMAX
 10
-1.000000000000000E+20
 20
-1.000000000000000E+20
 30
-1.000000000000000E+20
  9
$PLIMMIN
 10
0.0
 20
0.0
  9
$PLIMMAX
 10
12.0
 20
9.0
  9
$UNITMODE
 70
     0
  9
$VISRETAIN
 70
     1
  9
$PLINEGEN
 70
     0
  9
$PSLTSCALE
 70
     1
  9
$TREEDEPTH
 70
  3020
  9
$CMLSTYLE
  2
Standard
  9
$CMLJUST
 70
     0
  9
$CMLSCALE
 40
1.0
  9
$PROXYGRAPHICS
 70
     1
  9
$MEASUREMENT
 70
     1
  9
$CELWEIGHT
370
    -1
  9
$ENDCAPS
280
     0
  9
$JOINSTYLE
280
     0
  9
$LWDISPLAY
290
     0
  9
$INSUNITS
 70
     4
  9
$HYPERLINKBASE
  1

  9
$STYLESHEET
  1

  9
$XEDIT
290
     1
  9
$CEPSNTYPE
380
     0
  9
$PSTYLEMODE
290
     1
  9
$FINGERPRINTGUID
  2
{E704F8F0-EBDF-E6F0-87CE-5691C097B471}
  9
$VERSIONGUID
  2
{FAEB1C32-E019-11D5-929B-00C0DF256EC4}
  9
$EXTNAMES
290
     1
  9
$PSVPSCALE
 40
0.0
  9
$OLESTARTUP
290
     0
  9
$SORTENTS
280
   127
  9
$INDEXCTL
280
     0
  9
$HIDETEXT
280
     1
  9
$XCLIPFRAME
280
     2
  9
$HALOGAP
280
     0
  9
$OBSCOLOR
 70
   257
  9
$OBSLTYPE
280
     0
  9
$INTERSECTIONDISPLAY
280
     0
  9
$INTERSECTIONCOLOR
 70
   257
  9
$DIMASSOC
280
     2
  9
$PROJECTNAME
  1

  9
$CAMERADISPLAY
290
     0
  9
$LENSLENGTH
 40
50.0
  9
$CAMERAHEIGHT
 40
0.0
  9
$STEPSPERSEC
 40
2.0
  9
$STEPSIZE
 40
6.0
  9
$3DDWFPREC
 40
2.0
  9
$PSOLWIDTH
 40
0.25
  9
$PSOLHEIGHT
 40
4.0
  9
$LOFTANG1
 40
1.570796326794897
  9
$LOFTANG2
 40
1.570796326794897
  9
$LOFTMAG1
 40
0.0
  9
$LOFTMAG2
 40
0.0
  9
$LOFTPARAM
 70
     7
  9
$LOFTNORMALS
280
     1
  9
$LATITUDE
 40
37.795
  9
$LONGITUDE
 40
-122.394
  9
$NORTHDIRECTION
 40
0.0
  9
$TIMEZONE
 70
 -8000
  9
$LIGHTGLYPHDISPLAY
280
     1
  9
$TILEMODELIGHTSYNCH
280
     1
  9
$SOLIDHIST
280
     1
  9
$SHOWHIST
280
     1
  9
$DWFFRAME
280
     2
  9
$DGNFRAME
280
     2
  9
$REALWORLDSCALE
290
     1
  9
$INTERFERECOLOR
 62
   256
  9
$CSHADOW
280
     0
  9
$SHADOWPLANELOCATION
 40
0.0
  0
ENDSEC
  0
SECTION
  2
CLASSES
  0
CLASS
  1
ACDBDICTIONARYWDFLT
  2
AcDbDictionaryWithDefault
  3
ObjectDBX Classes
 90
        0
 91
        4
280
     0
281
     0
  0
CLASS
  1
VISUALSTYLE
  2
AcDbVisualStyle
  3
ObjectDBX Classes
 90
     4095
 91
        4
280
     0
281
     0
  0
CLASS
  1
MATERIAL
  2
AcDbMaterial
  3
ObjectDBX Classes
 90
     1153
 91
        4
280
     0
281
     0
  0
ENDSEC
  0
SECTION
  2
TABLES
  0
TABLE
  2
VPORT
  5
248
330
0
100
AcDbSymbolTable
 70
     1
  0
VPORT
  5
268
330
248
100
AcDbSymbolTableRecord
100
AcDbViewportTableRecord
  2
*Active
 70
     0
 10
0.0
 20
0.0
 11
1.0
 21
1.0
 12
10.42990654205607
 22
4.5
 13
0.0
 23
0.0
 14
0.5
 24
0.5
 15
0.5
 25
0.5
 16
0.0
 26
0.0
 36
1.0
 17
0.0
 27
0.0
 37
0.0
 40
9.0
 41
1.972972972850329
 42
50.0
 43
0.0
 44
0.0
 50
0.0
 51
0.0
 71
     0
 72
   100
 73
     1
 74
     3
 75
     0
 76
     0
 77
     0
 78
     0
281
     0
 65
     1
110
0.0
120
0.0
130
0.0
111
1.0
121
0.0
131
0.0
112
0.0
122
1.0
132
0.0
 79
     0
146
0.0
 60
     3
 61
     5
292
     1
282
     1
141
0.0
142
0.0
 63
   250
  0
ENDTAB
  0
TABLE
  2
LTYPE
  5
245
330
0
100
AcDbSymbolTable
 70
    19
  0
LTYPE
  5
253
330
245
100
AcDbSymbolTableRecord
100
AcDbLinetypeTableRecord
  2
ByBlock
 70
     0
  3

 72
    65
 73
     0
 40
0.0
  0
LTYPE
  5
254
330
245
100
AcDbSymbolTableRecord
100
AcDbLinetypeTableRecord
  2
ByLayer
 70
     0
  3

 72
    65
 73
     0
 40
0.0
  0
LTYPE
  5
255
330
245
100
AcDbSymbolTableRecord
100
AcDbLinetypeTableRecord
  2
Continuous
 70
     0
  3
Solid line
 72
    65
 73
     0
 40
0.0
  0
LTYPE
  5
297
330
245
100
AcDbSymbolTableRecord
100
AcDbLinetypeTableRecord
  2
BORDER
 70
     0
  3

 72
    65
 73
     6
 40
42.0
 49
12.0
 74
     0
 49
-6.0
 74
     0
 49
12.0
 74
     0
 49
-5.95
 74
     0
 49
0.1
 74
     0
 49
-5.95
 74
     0
  0
LTYPE
  5
298
330
245
100
AcDbSymbolTableRecord
100
AcDbLinetypeTableRecord
  2
BORDER2
 70
     0
  3

 72
    65
 73
     6
 40
21.0
 49
6.0
 74
     0
 49
-3.0
 74
     0
 49
6.0
 74
     0
 49
-2.95
 74
     0
 49
0.1
 74
     0
 49
-2.95
 74
     0
  0
LTYPE
  5
299
330
245
100
AcDbSymbolTableRecord
100
AcDbLinetypeTableRecord
  2
BORDERX2
 70
     0
  3

 72
    65
 73
     6
 40
84.0
 49
24.0
 74
     0
 49
-12.0
 74
     0
 49
24.0
 74
     0
 49
-11.95
 74
     0
 49
0.1
 74
     0
 49
-11.95
 74
     0
  0
LTYPE
  5
29A
330
245
100
AcDbSymbolTableRecord
100
AcDbLinetypeTableRecord
  2
CENTER
 70
     0
  3

 72
    65
 73
     4
 40
50.0
 49
32.0
 74
     0
 49
-6.0
 74
     0
 49
6.0
 74
     0
 49
-6.0
 74
     0
  0
LTYPE
  5
29B
330
245
100
AcDbSymbolTableRecord
100
AcDbLinetypeTableRecord
  2
CENTER2
 70
     0
  3

 72
    65
 73
     4
 40
25.0
 49
16.0
 74
     0
 49
-3.0
 74
     0
 49
3.0
 74
     0
 49
-3.0
 74
     0
  0
LTYPE
  5
29C
330
245
100
AcDbSymbolTableRecord
100
AcDbLinetypeTableRecord
  2
CENTERX2
 70
     0
  3

 72
    65
 73
     4
 40
100.0
 49
64.0
 74
     0
 49
-12.0
 74
     0
 49
12.0
 74
     0
 49
-12.0
 74
     0
  0
LTYPE
  5
29D
330
245
100
AcDbSymbolTableRecord
100
AcDbLinetypeTableRecord
  2
DASHDOT
 70
     0
  3

 72
    65
 73
     4
 40
24.0
 49
12.0
 74
     0
 49
-5.95
 74
     0
 49
0.1
 74
     0
 49
-5.95
 74
     0
  0
LTYPE
  5
29E
330
245
100
AcDbSymbolTableRecord
100
AcDbLinetypeTableRecord
  2
DASHDOT2
 70
     0
  3

 72
    65
 73
     4
 40
12.0
 49
6.0
 74
     0
 49
-2.95
 74
     0
 49
0.1
 74
     0
 49
-2.95
 74
     0
  0
LTYPE
  5
29F
330
245
100
AcDbSymbolTableRecord
100
AcDbLinetypeTableRecord
  2
DASHDOTX2
 70
     0
  3

 72
    65
 73
     4
 40
48.0
 49
24.0
 74
     0
 49
-11.95
 74
     0
 49
0.1
 74
     0
 49
-11.95
 74
     0
  0
LTYPE
  5
2A0
330
245
100
AcDbSymbolTableRecord
100
AcDbLinetypeTableRecord
  2
DASHED
 70
     0
  3

 72
    65
 73
     2
 40
18.0
 49
12.0
 74
     0
 49
-6.0
 74
     0
  0
LTYPE
  5
2A1
330
245
100
AcDbSymbolTableRecord
100
AcDbLinetypeTableRecord
  2
DASHED2
 70
     0
  3

 72
    65
 73
     2
 40
9.0
 49
6.0
 74
     0
 49
-3.0
 74
     0
  0
LTYPE
  5
2A2
330
245
100
AcDbSymbolTableRecord
100
AcDbLinetypeTableRecord
  2
DASHEDX2
 70
     0
  3

 72
    65
 73
     2
 40
36.0
 49
24.0
 74
     0
 49
-12.0
 74
     0
  0
LTYPE
  5
2A3
330
245
100
AcDbSymbolTableRecord
100
AcDbLinetypeTableRecord
  2
DIVIDE
 70
     0
  3

 72
    65
 73
     6
 40
30.0
 49
12.0
 74
     0
 49
-5.9
 74
     0
 49
0.15
 74
     0
 49
-5.9
 74
     0
 49
0.15
 74
     0
 49
-5.9
 74
     0
  0
LTYPE
  5
2A4
330
245
100
AcDbSymbolTableRecord
100
AcDbLinetypeTableRecord
  2
DIVIDE2
 70
     0
  3

 72
    65
 73
     6
 40
15.0
 49
6.0
 74
     0
 49
-2.9
 74
     0
 49
0.15
 74
     0
 49
-2.9
 74
     0
 49
0.15
 74
     0
 49
-2.9
 74
     0
  0
LTYPE
  5
2A5
330
245
100
AcDbSymbolTableRecord
100
AcDbLinetypeTableRecord
  2
DIVIDEX2
 70
     0
  3

 72
    65
 73
     6
 40
60.0
 49
24.0
 74
     0
 49
-11.9
 74
     0
 49
0.15
 74
     0
 49
-11.9
 74
     0
 49
0.15
 74
     0
 49
-11.9
 74
     0
  0
LTYPE
  5
2A6
330
245
100
AcDbSymbolTableRecord
100
AcDbLinetypeTableRecord
  2
DOT
 70
     0
  3

 72
    65
 73
     2
 40
6.3
 49
0.1
 74
     0
 49
-6.2
 74
     0
  0
LTYPE
  5
2A7
330
245
100
AcDbSymbolTableRecord
100
AcDbLinetypeTableRecord
  2
DOT2
 70
     0
  3

 72
    65
 73
     2
 40
3.2
 49
0.1
 74
     0
 49
-3.1
 74
     0
  0
LTYPE
  5
2A8
330
245
100
AcDbSymbolTableRecord
100
AcDbLinetypeTableRecord
  2
DOTX2
 70
     0
  3

 72
    65
 73
     2
 40
12.5
 49
0.1
 74
     0
 49
-12.4
 74
     0
  0
ENDTAB
  0
TABLE
  2
LAYER
  5
242
330
0
100
AcDbSymbolTable
 70
     9
  0
LAYER
  5
250
330
242
100
AcDbSymbolTableRecord
100
AcDbLayerTableRecord
  2
0
 70
     0
 62
     7
420
 16777215
  6
Continuous
370
    25
390
24F
347
27D
  0
LAYER
  5
2A9
330
242
100
AcDbSymbolTableRecord
100
AcDbLayerTableRecord
  2
Cut
 70
     0
 62
     5
420
      255
  6
Continuous
370
    25
390
24F
347
27D
  0
LAYER
  5
2AA
330
242
100
AcDbSymbolTableRecord
100
AcDbLayerTableRecord
  2
MediumEngrave
 70
     0
 62
     3
420
    65280
  6
Continuous
370
    25
390
24F
347
27D
  0
LAYER
  5
2AB
330
242
100
AcDbSymbolTableRecord
100
AcDbLayerTableRecord
  2
HeavyEngrave
 70
     0
 62
     1
420
 16711680
  6
Continuous
370
    25
390
24F
347
27D
  0
LAYER
  5
2AC
330
242
100
AcDbSymbolTableRecord
100
AcDbLayerTableRecord
  2
LightEngrave
 70
     0
 62
     6
420
 16711935
  6
Continuous
370
    25
390
24F
347
27D
  0
LAYER
  5
2AD
330
242
100
AcDbSymbolTableRecord
100
AcDbLayerTableRecord
  2
Guides
 70
     1
 62
     2
420
 16776960
  6
Continuous
370
    25
390
24F
347
27D
  0
LAYER
  5
2AE
330
242
100
AcDbSymbolTableRecord
100
AcDbLayerTableRecord
  2
LightFill
 70
     0
 62
   254
420
 15132390
  6
Continuous
370
    25
390
24F
347
27D
  0
LAYER
  5
2AF
330
242
100
AcDbSymbolTableRecord
100
AcDbLayerTableRecord
  2
MediumFill
 70
     0
 62
     8
420
  8421504
  6
Continuous
370
    25
390
24F
347
27D
  0
LAYER
  5
2B0
330
242
100
AcDbSymbolTableRecord
100
AcDbLayerTableRecord
  2
HeavyFill
 70
     0
 62
   178
420
        0
  6
Continuous
370
    25
390
24F
347
27D
  0
ENDTAB
  0
TABLE
  2
STYLE
  5
243
330
0
100
AcDbSymbolTable
 70
     2
  0
STYLE
  5
251
330
243
100
AcDbSymbolTableRecord
100
AcDbTextStyleTableRecord
  2
Standard
 70
     0
 40
0.0
 41
1.0
 50
0.0
 71
     0
 42
0.2
  3
txt
  4

  0
STYLE
  5
2C3
330
243
100
AcDbSymbolTableRecord
100
AcDbTextStyleTableRecord
  2
textstyle0
 70
     0
 40
0.0
 41
1.0
 50
0.0
 71
     0
 42
0.2
  3

  4

1001
ACAD
1000
Impact
1071
 33554432
  0
ENDTAB
  0
TABLE
  2
VIEW
  5
246
330
0
100
AcDbSymbolTable
 70
     0
  0
ENDTAB
  0
TABLE
  2
UCS
  5
247
330
0
100
AcDbSymbolTable
 70
     0
  0
ENDTAB
  0
TABLE
  2
APPID
  5
249
330
0
100
AcDbSymbolTable
 70
     2
  0
APPID
  5
252
330
249
100
AcDbSymbolTableRecord
100
AcDbRegAppTableRecord
  2
ACAD
 70
     0
  0
APPID
  5
27E
330
249
100
AcDbSymbolTableRecord
100
AcDbRegAppTableRecord
  2
QCAD
 70
     0
  0
ENDTAB
  0
TABLE
  2
DIMSTYLE
  5
24A
330
0
100
AcDbSymbolTable
 70
     2
100
AcDbDimStyleTable
  0
DIMSTYLE
105
266
330
24A
100
AcDbSymbolTableRecord
100
AcDbDimStyleTableRecord
  2
Standard
 70
     0
178
     0
340
251
  0
DIMSTYLE
105
296
330
24A
100
AcDbSymbolTableRecord
100
AcDbDimStyleTableRecord
  2
QCADDimStyle
 70
     0
 41
2.5
 42
0.625
 44
1.25
 73
     0
 77
     1
140
2.5
147
0.625
178
     0
340
251
  0
ENDTAB
  0
TABLE
  2
BLOCK_RECORD
  5
241
330
0
100
AcDbSymbolTable
 70
     7
  0
BLOCK_RECORD
  5
25E
330
241
100
AcDbSymbolTableRecord
100
AcDbBlockTableRecord
  2
*Model_Space
340
261
 70
     0
280
     1
281
     0
  0
BLOCK_RECORD
  5
25A
330
241
100
AcDbSymbolTableRecord
100
AcDbBlockTableRecord
  2
*Paper_Space
340
25D
 70
     0
280
     1
281
     0
  0
BLOCK_RECORD
  5
262
330
241
100
AcDbSymbolTableRecord
100
AcDbBlockTableRecord
  2
*Paper_Space0
340
265
 70
     0
280
     1
281
     0
  0
BLOCK_RECORD
  5
2B1
330
241
100
AcDbSymbolTableRecord
100
AcDbBlockTableRecord
  2
Tab
340
0
102
{BLKREFS
331
132
331
133
331
134
331
135
331
136
331
137
331
138
331
139
331
13C
331
13D
331
13E
331
13F
331
140
331
141
102
}
 70
     0
280
     1
281
     0
  0
BLOCK_RECORD
  5
2B4
330
241
100
AcDbSymbolTableRecord
100
AcDbBlockTableRecord
  2
LongTab
340
0
102
{BLKREFS
331
158
331
159
331
15A
331
15B
102
}
 70
     0
280
     1
281
     0
  0
BLOCK_RECORD
  5
2B7
330
241
100
AcDbSymbolTableRecord
100
AcDbBlockTableRecord
  2
Slot
340
0
102
{BLKREFS
331
131
331
142
331
143
331
144
331
145
331
146
331
147
331
148
331
149
331
14A
331
1B9
331
1BA
331
1BB
331
1BC
102
}
 70
     0
280
     1
281
     0
  0
BLOCK_RECORD
  5
2BA
330
241
100
AcDbSymbolTableRecord
100
AcDbBlockTableRecord
  2
LongSlot
340
0
102
{BLKREFS
331
154
331
155
331
156
331
157
102
}
 70
     0
280
     1
281
     0
  0
BLOCK_RECORD
  5
2BD
330
241
100
AcDbSymbolTableRecord
100
AcDbBlockTableRecord
  2
Arduino
340
0
102
{BLKREFS
331
124
102
}
 70
     0
280
     1
281
     0
  0
BLOCK_RECORD
  5
2C0
330
241
100
AcDbSymbolTableRecord
100
AcDbBlockTableRecord
  2
LCD
340
0
102
{BLKREFS
331
125
102
}
 70
     0
280
     1
281
     0
  0
ENDTAB
  0
ENDSEC
  0
SECTION
  2
BLOCKS
  0
BLOCK
  5
25F
330
25E
100
AcDbEntity
  8
0
100
AcDbBlockBegin
  2
*Model_Space
 70
     0
 10
0.0
 20
0.0
 30
0.0
  3
*Model_Space
  1

  0
ENDBLK
  5
260
330
25E
100
AcDbEntity
  8
0
100
AcDbBlockEnd
  0
BLOCK
  5
25B
330
25A
100
AcDbEntity
 67
     1
  8
0
100
AcDbBlockBegin
  2
*Paper_Space
 70
     0
 10
0.0
 20
0.0
 30
0.0
  3
*Paper_Space
  1

  0
ENDBLK
  5
25C
330
25A
100
AcDbEntity
 67
     1
  8
0
100
AcDbBlockEnd
  0
BLOCK
  5
263
330
262
100
AcDbEntity
  8
0
100
AcDbBlockBegin
  2
*Paper_Space0
 70
     0
 10
0.0
 20
0.0
 30
0.0
  3
*Paper_Space0
  1

  0
ENDBLK
  5
264
330
262
100
AcDbEntity
  8
0
100
AcDbBlockEnd
  0
BLOCK
  5
2B2
330
2B1
100
AcDbEntity
  8
0
100
AcDbBlockBegin
  2
Tab
 70
     0
 10
0.0
 20
0.0
 30
0.0
  3
Tab
  1

  0
LINE
  5
A0
330
2B1
100
AcDbEntity
  8
Cut
100
AcDbLine
 10
16.66666666666667
 20
9.0
 30
0.0
 11
18.33333333333334
 21
9.0
 31
0.0
  0
LINE
  5
A1
330
2B1
100
AcDbEntity
  8
Cut
100
AcDbLine
 10
18.33333333333334
 20
9.0
 30
0.0
 11
18.33333333333334
 21
6.0
 31
0.0
  0
LINE
  5
A2
330
2B1
100
AcDbEntity
  8
Cut
100
AcDbLine
 10
18.33333333333334
 20
6.0
 30
0.0
 11
16.66666666666667
 21
6.0
 31
0.0
  0
LINE
  5
A3
330
2B1
100
AcDbEntity
  8
Cut
100
AcDbLine
 10
16.66666666666667
 20
6.0
 30
0.0
 11
16.66666666666667
 21
3.0
 31
0.0
  0
LINE
  5
A4
330
2B1
100
AcDbEntity
  8
Cut
100
AcDbLine
 10
16.66666666666667
 20
3.0
 30
0.0
 11
20.0
 21
3.0
 31
0.0
  0
LINE
  5
A5
330
2B1
100
AcDbEntity
  8
Cut
100
AcDbLine
 10
20.0
 20
3.0
 30
0.0
 11
20.0
 21
0.0
 31
0.0
  0
LINE
  5
A6
330
2B1
100
AcDbEntity
  8
Cut
100
AcDbLine
 10
20.0
 20
0.0
 30
0.0
 11
30.0
 21
0.0
 31
0.0
  0
LINE
  5
A7
330
2B1
100
AcDbEntity
  8
Cut
100
AcDbLine
 10
30.0
 20
0.0
 30
0.0
 11
30.0
 21
3.0
 31
0.0
  0
LINE
  5
A8
330
2B1
100
AcDbEntity
  8
Cut
100
AcDbLine
 10
0.0
 20
3.0
 30
0.0
 11
0.0
 21
0.0
 31
0.0
  0
LINE
  5
A9
330
2B1
100
AcDbEntity
  8
Cut
100
AcDbLine
 10
0.0
 20
0.0
 30
0.0
 11
10.0
 21
0.0
 31
0.0
  0
LINE
  5
AA
330
2B1
100
AcDbEntity
  8
Cut
100
AcDbLine
 10
10.0
 20
0.0
 30
0.0
 11
10.0
 21
3.0
 31
0.0
  0
LINE
  5
AB
330
2B1
100
AcDbEntity
  8
Cut
100
AcDbLine
 10
10.0
 20
3.0
 30
0.0
 11
13.33333333333333
 21
3.0
 31
0.0
  0
LINE
  5
AC
330
2B1
100
AcDbEntity
  8
Cut
100
AcDbLine
 10
13.33333333333333
 20
3.0
 30
0.0
 11
13.33333333333333
 21
6.0
 31
0.0
  0
LINE
  5
AD
330
2B1
100
AcDbEntity
  8
Cut
100
AcDbLine
 10
13.33333333333333
 20
6.0
 30
0.0
 11
11.66666666666667
 21
6.0
 31
0.0
  0
LINE
  5
AE
330
2B1
100
AcDbEntity
  8
Cut
100
AcDbLine
 10
11.66666666666667
 20
6.0
 30
0.0
 11
11.66666666666667
 21
9.0
 31
0.0
  0
LINE
  5
AF
330
2B1
100
AcDbEntity
  8
Cut
100
AcDbLine
 10
11.66666666666667
 20
9.0
 30
0.0
 11
13.33333333333333
 21
9.0
 31
0.0
  0
LINE
  5
B0
330
2B1
100
AcDbEntity
  8
Cut
100
AcDbLine
 10
13.33333333333333
 20
9.0
 30
0.0
 11
13.33333333333333
 21
11.0
 31
0.0
  0
LINE
  5
B1
330
2B1
100
AcDbEntity
  8
Cut
100
AcDbLine
 10
13.33333333333333
 20
11.0
 30
0.0
 11
16.66666666666667
 21
11.0
 31
0.0
  0
LINE
  5
B2
330
2B1
100
AcDbEntity
  8
Cut
100
AcDbLine
 10
16.66666666666667
 20
11.0
 30
0.0
 11
16.66666666666667
 21
9.0
 31
0.0
  0
ENDBLK
  5
2B3
330
2B1
100
AcDbEntity
  8
0
100
AcDbBlockEnd
  0
BLOCK
  5
2B5
330
2B4
100
AcDbEntity
  8
0
100
AcDbBlockBegin
  2
LongTab
 70
     0
 10
0.0
 20
0.0
 30
0.0
  3
LongTab
  1

  0
LINE
  5
F1
330
2B4
100
AcDbEntity
  8
Cut
100
AcDbLine
 10
-20.0
 20
3.0
 30
0.0
 11
-10.0
 21
3.0
 31
0.0
  0
LINE
  5
F2
330
2B4
100
AcDbEntity
  8
Cut
100
AcDbLine
 10
-10.0
 20
3.0
 30
0.0
 11
-10.0
 21
0.0
 31
0.0
  0
LINE
  5
F3
330
2B4
100
AcDbEntity
  8
Cut
100
AcDbLine
 10
10.0
 20
0.0
 30
0.0
 11
10.0
 21
3.0
 31
0.0
  0
LINE
  5
F4
330
2B4
100
AcDbEntity
  8
Cut
100
AcDbLine
 10
10.0
 20
3.0
 30
0.0
 11
20.0
 21
3.0
 31
0.0
  0
ENDBLK
  5
2B6
330
2B4
100
AcDbEntity
  8
0
100
AcDbBlockEnd
  0
BLOCK
  5
2B8
330
2B7
100
AcDbEntity
  8
0
100
AcDbBlockBegin
  2
Slot
 70
     0
 10
0.0
 20
0.0
 30
0.0
  3
Slot
  1

  0
LINE
  5
F5
330
2B7
100
AcDbEntity
  8
Cut
100
AcDbLine
 10
15.0
 20
0.0
 30
0.0
 11
5.000000000000002
 21
0.0
 31
0.0
  0
CIRCLE
  5
F6
330
2B7
100
AcDbEntity
  8
Cut
100
AcDbCircle
 10
0.0000000000000018
 20
1.5
 30
0.0
 40
1.55
  0
LINE
  5
F7
330
2B7
100
AcDbEntity
  8
Cut
100
AcDbLine
 10
-15.0
 20
0.0
 30
0.0
 11
-4.999999999999998
 21
0.0
 31
0.0
  0
LINE
  5
F8
330
2B7
100
AcDbEntity
  8
Cut
100
AcDbLine
 10
-4.999999999999998
 20
0.0
 30
0.0
 11
-4.999999999999998
 21
3.0
 31
0.0
  0
LINE
  5
F9
330
2B7
100
AcDbEntity
  8
Cut
100
AcDbLine
 10
-4.999999999999998
 20
3.0
 30
0.0
 11
-15.0
 21
3.0
 31
0.0
  0
LINE
  5
FA
330
2B7
100
AcDbEntity
  8
Cut
100
AcDbLine
 10
-15.0
 20
3.0
 30
0.0
 11
-15.0
 21
0.0
 31
0.0
  0
LINE
  5
FB
330
2B7
100
AcDbEntity
  8
Cut
100
AcDbLine
 10
5.000000000000002
 20
0.0
 30
0.0
 11
5.000000000000002
 21
3.0
 31
0.0
  0
LINE
  5
FC
330
2B7
100
AcDbEntity
  8
Cut
100
AcDbLine
 10
5.000000000000002
 20
3.0
 30
0.0
 11
15.0
 21
3.0
 31
0.0
  0
LINE
  5
FD
330
2B7
100
AcDbEntity
  8
Cut
100
AcDbLine
 10
15.0
 20
3.0
 30
0.0
 11
15.0
 21
0.0
 31
0.0
  0
ENDBLK
  5
2B9
330
2B7
100
AcDbEntity
  8
0
100
AcDbBlockEnd
  0
BLOCK
  5
2BB
330
2BA
100
AcDbEntity
  8
0
100
AcDbBlockBegin
  2
LongSlot
 70
     0
 10
0.0
 20
0.0
 30
0.0
  3
LongSlot
  1

  0
LINE
  5
FE
330
2BA
100
AcDbEntity
  8
Cut
100
AcDbLine
 10
0.0
 20
10.0
 30
0.0
 11
-3.0
 21
10.0
 31
0.0
  0
LINE
  5
FF
330
2BA
100
AcDbEntity
  8
Cut
100
AcDbLine
 10
-3.0
 20
10.0
 30
0.0
 11
-3.0
 21
-10.0
 31
0.0
  0
LINE
  5
100
330
2BA
100
AcDbEntity
  8
Cut
100
AcDbLine
 10
-3.0
 20
-10.0
 30
0.0
 11
0.0
 21
-10.0
 31
0.0
  0
ENDBLK
  5
2BC
330
2BA
100
AcDbEntity
  8
0
100
AcDbBlockEnd
  0
BLOCK
  5
2BE
330
2BD
100
AcDbEntity
  8
0
100
AcDbBlockBegin
  2
Arduino
 70
     0
 10
0.0
 20
0.0
 30
0.0
  3
Arduino
  1

  0
CIRCLE
  5
101
330
2BD
100
AcDbEntity
  8
Cut
100
AcDbCircle
 10
31.75
 20
8.889999999999986
 30
0.0
 40
1.5875
  0
LINE
  5
102
330
2BD
100
AcDbEntity
  8
LightEngrave
100
AcDbLine
 10
31.75
 20
-24.13
 30
0.0
 11
34.28999999999999
 21
-21.59
 31
0.0
  0
LINE
  5
103
330
2BD
100
AcDbEntity
  8
LightEngrave
100
AcDbLine
 10
34.28999999999999
 20
-21.59
 30
0.0
 11
34.28999999999999
 21
11.17599999999999
 31
0.0
  0
LINE
  5
104
330
2BD
100
AcDbEntity
  8
LightEngrave
100
AcDbLine
 10
34.28999999999999
 20
11.17599999999999
 30
0.0
 11
31.75
 21
13.71600000000001
 31
0.0
  0
LINE
  5
105
330
2BD
100
AcDbEntity
  8
LightEngrave
100
AcDbLine
 10
31.75
 20
13.71600000000001
 30
0.0
 11
31.75
 21
25.14599999999999
 31
0.0
  0
LINE
  5
106
330
2BD
100
AcDbEntity
  8
LightEngrave
100
AcDbLine
 10
31.75
 20
25.14599999999999
 30
0.0
 11
30.226
 21
26.66999999999999
 31
0.0
  0
LINE
  5
107
330
2BD
100
AcDbEntity
  8
LightEngrave
100
AcDbLine
 10
30.226
 20
26.66999999999999
 30
0.0
 11
-34.28999999999999
 21
26.66999999999999
 31
0.0
  0
LINE
  5
108
330
2BD
100
AcDbEntity
  8
LightEngrave
100
AcDbLine
 10
-34.28999999999999
 20
26.66999999999999
 30
0.0
 11
-34.28999999999999
 21
-26.66999999999999
 31
0.0
  0
LINE
  5
109
330
2BD
100
AcDbEntity
  8
LightEngrave
100
AcDbLine
 10
-34.28999999999999
 20
-26.66999999999999
 30
0.0
 11
-34.28999999999999
 21
-26.66999999999999
 31
0.0
  0
CIRCLE
  5
10A
330
2BD
100
AcDbEntity
  8
Cut
100
AcDbCircle
 10
-20.31999999999999
 20
-24.13
 30
0.0
 40
1.5875
  0
LINE
  5
10B
330
2BD
100
AcDbEntity
  8
LightEngrave
100
AcDbLine
 10
-34.28999999999999
 20
-26.66999999999999
 30
0.0
 11
31.75
 21
-26.66999999999999
 31
0.0
  0
CIRCLE
  5
10C
330
2BD
100
AcDbEntity
  8
Cut
100
AcDbCircle
 10
31.75
 20
-19.05000000000001
 30
0.0
 40
1.5875
  0
LINE
  5
10D
330
2BD
100
AcDbEntity
  8
LightEngrave
100
AcDbLine
 10
31.75
 20
-26.66999999999999
 30
0.0
 11
31.75
 21
-24.13
 31
0.0
  0
ENDBLK
  5
2BF
330
2BD
100
AcDbEntity
  8
0
100
AcDbBlockEnd
  0
BLOCK
  5
2C1
330
2C0
100
AcDbEntity
  8
0
100
AcDbBlockBegin
  2
LCD
 70
     0
 10
0.0
 20
0.0
 30
0.0
  3
LCD
  1

  0
LINE
  5
48
330
2C0
100
AcDbEntity
  8
Guides
100
AcDbLine
 10
0.0
 20
36.0
 30
0.0
 11
0.0
 21
0.0
 31
0.0
  0
LINE
  5
49
330
2C0
100
AcDbEntity
  8
Guides
100
AcDbLine
 10
98.99
 20
4.26
 30
0.0
 11
27.53999999999999
 21
4.26
 31
0.0
  0
LINE
  5
4A
330
2C0
100
AcDbEntity
  8
Guides
100
AcDbLine
 10
27.53999999999999
 20
4.26
 30
0.0
 11
27.53999999999999
 21
31.29
 31
0.0
  0
LINE
  5
4B
330
2C0
100
AcDbEntity
  8
Guides
100
AcDbLine
 10
27.53999999999999
 20
31.29
 30
0.0
 11
98.99
 21
31.29
 31
0.0
  0
LINE
  5
4C
330
2C0
100
AcDbEntity
  8
Guides
100
AcDbLine
 10
98.99
 20
31.29
 30
0.0
 11
98.99
 21
4.26
 31
0.0
  0
LINE
  5
4D
330
2C0
100
AcDbEntity
  8
Cut
100
AcDbLine
 10
93.49
 20
9.370000000000001
 30
0.0
 11
33.03999999999999
 21
9.370000000000001
 31
0.0
  0
LINE
  5
4E
330
2C0
100
AcDbEntity
  8
Cut
100
AcDbLine
 10
31.03999999999999
 20
11.37
 30
0.0
 11
31.03999999999999
 21
24.18
 31
0.0
  0
LINE
  5
4F
330
2C0
100
AcDbEntity
  8
Cut
100
AcDbLine
 10
33.03999999999999
 20
26.18
 30
0.0
 11
93.49
 21
26.18
 31
0.0
  0
LINE
  5
50
330
2C0
100
AcDbEntity
  8
Cut
100
AcDbLine
 10
95.49
 20
24.18
 30
0.0
 11
95.49
 21
11.37
 31
0.0
  0
ARC
  5
51
330
2C0
100
AcDbEntity
  8
Cut
100
AcDbCircle
 10
33.03999999999999
 20
24.18
 30
0.0
 40
2.0
100
AcDbArc
 50
90.0
 51
180.0
  0
ARC
  5
52
330
2C0
100
AcDbEntity
  8
Cut
100
AcDbCircle
 10
93.49
 20
24.18
 30
0.0
 40
2.0
100
AcDbArc
 50
0.0
 51
90.0
  0
ARC
  5
53
330
2C0
100
AcDbEntity
  8
Cut
100
AcDbCircle
 10
93.49
 20
11.37
 30
0.0
 40
2.0
100
AcDbArc
 50
270.0
 51
0.0
  0
ARC
  5
54
330
2C0
100
AcDbEntity
  8
Cut
100
AcDbCircle
 10
33.03999999999999
 20
11.37
 30
0.0
 40
2.0
100
AcDbArc
 50
180.0
 51
270.0
  0
CIRCLE
  5
55
330
2C0
100
AcDbEntity
  8
Cut
100
AcDbCircle
 10
2.5
 20
2.5
 30
0.0
 40
1.25
  0
CIRCLE
  5
56
330
2C0
100
AcDbEntity
  8
Cut
100
AcDbCircle
 10
2.5
 20
33.5
 30
0.0
 40
1.25
  0
CIRCLE
  5
57
330
2C0
100
AcDbEntity
  8
Cut
100
AcDbCircle
 10
100.5
 20
33.5
 30
0.0
 40
1.25
  0
CIRCLE
  5
58
330
2C0
100
AcDbEntity
  8
Cut
100
AcDbCircle
 10
100.5
 20
2.5
 30
0.0
 40
1.25
  0
LINE
  5
59
330
2C0
100
AcDbEntity
  8
Guides
100
AcDbLine
 10
0.0
 20
0.0
 30
0.0
 11
103.0
 21
0.0
 31
0.0
  0
LINE
  5
5A
330
2C0
100
AcDbEntity
  8
Guides
100
AcDbLine
 10
103.0
 20
0.0
 30
0.0
 11
103.0
 21
36.0
 31
0.0
  0
LINE
  5
5B
330
2C0
100
AcDbEntity
  8
Guides
100
AcDbLine
 10
103.0
 20
36.0
 30
0.0
 11
0.0
 21
36.0
 31
0.0
  0
ENDBLK
  5
2C2
330
2C0
100
AcDbEntity
  8
0
100
AcDbBlockEnd
  0
ENDSEC
  0
SECTION
  2
ENTITIES
  0
LINE
  5
10E
330
25E
100
AcDbEntity
  8
Cut
100
AcDbLine
 10
105.0
 20
100.0
 30
0.0
 11
225.0
 21
100.0
 31
0.0
  0
LINE
  5
10F
330
25E
100
AcDbEntity
  8
Cut
100
AcDbLine
 10
225.0
 20
200.0
 30
0.0
 11
105.0
 21
200.0
 31
0.0
  0
LINE
  5
110
330
25E
100
AcDbEntity
  8
Cut
100
AcDbLine
 10
100.0
 20
195.0
 30
0.0
 11
100.0
 21
105.0
 31
0.0
  0
LINE
  5
111
330
25E
100
AcDbEntity
  8
Cut
100
AcDbLine
 10
110.0
 20
50.0
 30
0.0
 11
130.0
 21
50.0
 31
0.0
  0
LINE
  5
112
330
25E
100
AcDbEntity
  8
Cut
100
AcDbLine
 10
220.0
 20
50.0
 30
0.0
 11
220.0
 21
60.0
 31
0.0
  0
LINE
  5
113
330
25E
100
AcDbEntity
  8
Cut
100
AcDbLine
 10
220.0
 20
90.0
 30
0.0
 11
200.0
 21
90.0
 31
0.0
  0
LINE
  5
114
330
25E
100
AcDbEntity
  8
Cut
100
AcDbLine
 10
110.0
 20
90.0
 30
0.0
 11
110.0
 21
80.0
 31
0.0
  0
LINE
  5
115
330
25E
100
AcDbEntity
  8
Cut
100
AcDbLine
 10
110.0
 20
210.0
 30
0.0
 11
130.0
 21
210.0
 31
0.0
  0
LINE
  5
116
330
25E
100
AcDbEntity
  8
Cut
100
AcDbLine
 10
220.0
 20
210.0
 30
0.0
 11
220.0
 21
220.0
 31
0.0
  0
LINE
  5
117
330
25E
100
AcDbEntity
  8
Cut
100
AcDbLine
 10
220.0
 20
250.0
 30
0.0
 11
200.0
 21
250.0
 31
0.0
  0
LINE
  5
118
330
25E
100
AcDbEntity
  8
Cut
100
AcDbLine
 10
110.0
 20
250.0
 30
0.0
 11
110.0
 21
240.0
 31
0.0
  0
LINE
  5
121
330
25E
100
AcDbEntity
  8
Cut
100
AcDbLine
 10
105.0
 20
260.0
 30
0.0
 11
225.0
 21
260.0
 31
0.0
  0
LINE
  5
122
330
25E
100
AcDbEntity
  8
Cut
100
AcDbLine
 10
225.0
 20
360.0
 30
0.0
 11
105.0
 21
360.0
 31
0.0
  0
LINE
  5
123
330
25E
100
AcDbEntity
  8
Cut
100
AcDbLine
 10
100.0
 20
355.0
 30
0.0
 11
100.0
 21
265.0
 31
0.0
  0
INSERT
  5
124
330
25E
100
AcDbEntity
  8
0
100
AcDbBlockReference
  2
Arduino
 10
170.0
 20
150.0
 30
0.0
  0
INSERT
  5
125
330
25E
100
AcDbEntity
  8
Cut
100
AcDbBlockReference
  2
LCD
 10
116.0
 20
52.0
 30
0.0
  0
ARC
  5
126
330
25E
100
AcDbEntity
  8
Cut
100
AcDbCircle
 10
105.0
 20
195.0
 30
0.0
 40
5.0
100
AcDbArc
 50
90.0
 51
180.0
  0
ARC
  5
127
330
25E
100
AcDbEntity
  8
Cut
100
AcDbCircle
 10
105.0
 20
105.0
 30
0.0
 40
5.0
100
AcDbArc
 50
180.0
 51
270.0
  0
ARC
  5
128
330
25E
100
AcDbEntity
  8
Cut
100
AcDbCircle
 10
105.0
 20
265.0
 30
0.0
 40
5.0
100
AcDbArc
 50
180.0
 51
270.0
  0
ARC
  5
129
330
25E
100
AcDbEntity
  8
Cut
100
AcDbCircle
 10
105.0
 20
355.0
 30
0.0
 40
5.0
100
AcDbArc
 50
90.0
 51
180.0
  0
LINE
  5
12A
330
25E
100
AcDbEntity
  8
Cut
100
AcDbLine
 10
230.0
 20
195.0
 30
0.0
 11
230.0
 21
105.0
 31
0.0
  0
ARC
  5
12B
330
25E
100
AcDbEntity
  8
Cut
100
AcDbCircle
 10
225.0
 20
195.0
 30
0.0
 40
5.0
100
AcDbArc
 50
0.0
 51
90.0
  0
ARC
  5
12C
330
25E
100
AcDbEntity
  8
Cut
100
AcDbCircle
 10
225.0
 20
105.0
 30
0.0
 40
5.0
100
AcDbArc
 50
270.0
 51
0.0
  0
LINE
  5
12D
330
25E
100
AcDbEntity
  8
Cut
100
AcDbLine
 10
230.0
 20
355.0
 30
0.0
 11
230.0
 21
265.0
 31
0.0
  0
ARC
  5
12E
330
25E
100
AcDbEntity
  8
Cut
100
AcDbCircle
 10
225.0
 20
355.0
 30
0.0
 40
5.0
100
AcDbArc
 50
0.0
 51
90.0
  0
ARC
  5
12F
330
25E
100
AcDbEntity
  8
Cut
100
AcDbCircle
 10
225.0
 20
265.0
 30
0.0
 40
5.0
100
AcDbArc
 50
270.0
 51
0.0
  0
MTEXT
  5
130
330
25E
100
AcDbEntity
  8
HeavyFill
100
AcDbMText
 10
129.0
 20
70.0
 30
0.0
 40
9.0
 41
0.0
 46
0.0
 71
     5
 72
     1
  1
SPURT\pALERT
  7
textstyle0
 73
     1
 44
1.0
  0
INSERT
  5
131
330
25E
100
AcDbEntity
  8
0
100
AcDbBlockReference
  2
Slot
 10
145.0
 20
105.0
 30
0.0
  0
INSERT
  5
132
330
25E
100
AcDbEntity
  8
Cut
100
AcDbBlockReference
  2
Tab
 10
160.0
 20
93.0
 30
0.0
 50
180.0
  0
INSERT
  5
133
330
25E
100
AcDbEntity
  8
HeavyFill
100
AcDbBlockReference
  2
Tab
 10
200.0
 20
93.0
 30
0.0
 50
180.0
  0
INSERT
  5
134
330
25E
100
AcDbEntity
  8
HeavyFill
100
AcDbBlockReference
  2
Tab
 10
130.0
 20
47.0
 30
0.0
  0
INSERT
  5
135
330
25E
100
AcDbEntity
  8
HeavyFill
100
AcDbBlockReference
  2
Tab
 10
170.0
 20
47.0
 30
0.0
  0
INSERT
  5
136
330
25E
100
AcDbEntity
  8
HeavyFill
100
AcDbBlockReference
  2
Tab
 10
130.0
 20
207.0
 30
0.0
  0
INSERT
  5
137
330
25E
100
AcDbEntity
  8
HeavyFill
100
AcDbBlockReference
  2
Tab
 10
170.0
 20
207.0
 30
0.0
  0
INSERT
  5
138
330
25E
100
AcDbEntity
  8
HeavyFill
100
AcDbBlockReference
  2
Tab
 10
160.0
 20
253.0
 30
0.0
 50
180.0
  0
INSERT
  5
139
330
25E
100
AcDbEntity
  8
HeavyFill
100
AcDbBlockReference
  2
Tab
 10
200.0
 20
253.0
 30
0.0
 50
180.0
  0
INSERT
  5
13C
330
25E
100
AcDbEntity
  8
HeavyFill
100
AcDbBlockReference
  2
Tab
 10
47.0
 20
185.0
 30
0.0
 50
270.0
  0
INSERT
  5
13D
330
25E
100
AcDbEntity
  8
HeavyFill
100
AcDbBlockReference
  2
Tab
 10
47.0
 20
145.0
 30
0.0
 50
270.0
  0
INSERT
  5
13E
330
25E
100
AcDbEntity
  8
HeavyFill
100
AcDbBlockReference
  2
Tab
 10
237.0
 20
145.0
 30
0.0
 50
270.0
  0
INSERT
  5
13F
330
25E
100
AcDbEntity
  8
HeavyFill
100
AcDbBlockReference
  2
Tab
 10
237.0
 20
185.0
 30
0.0
 50
270.0
  0
INSERT
  5
140
330
25E
100
AcDbEntity
  8
HeavyFill
100
AcDbBlockReference
  2
Tab
 10
283.0
 20
155.0
 30
0.0
 50
90.0
  0
INSERT
  5
141
330
25E
100
AcDbEntity
  8
HeavyFill
100
AcDbBlockReference
  2
Tab
 10
283.0
 20
115.0
 30
0.0
 50
90.0
  0
INSERT
  5
142
330
25E
100
AcDbEntity
  8
HeavyFill
100
AcDbBlockReference
  2
Slot
 10
185.0
 20
105.0
 30
0.0
  0
INSERT
  5
143
330
25E
100
AcDbEntity
  8
HeavyFill
100
AcDbBlockReference
  2
Slot
 10
145.0
 20
195.0
 30
0.0
 50
180.0
  0
INSERT
  5
144
330
25E
100
AcDbEntity
  8
HeavyFill
100
AcDbBlockReference
  2
Slot
 10
185.0
 20
195.0
 30
0.0
 50
180.0
  0
INSERT
  5
145
330
25E
100
AcDbEntity
  8
HeavyFill
100
AcDbBlockReference
  2
Slot
 10
145.0
 20
265.0
 30
0.0
  0
INSERT
  5
146
330
25E
100
AcDbEntity
  8
HeavyFill
100
AcDbBlockReference
  2
Slot
 10
185.0
 20
265.0
 30
0.0
  0
INSERT
  5
147
330
25E
100
AcDbEntity
  8
HeavyFill
100
AcDbBlockReference
  2
Slot
 10
145.0
 20
355.0
 30
0.0
 50
180.0
  0
INSERT
  5
148
330
25E
100
AcDbEntity
  8
HeavyFill
100
AcDbBlockReference
  2
Slot
 10
185.0
 20
355.0
 30
0.0
 50
180.0
  0
INSERT
  5
149
330
25E
100
AcDbEntity
  8
HeavyFill
100
AcDbBlockReference
  2
Slot
 10
225.0
 20
170.0
 30
0.0
 50
90.0
  0
INSERT
  5
14A
330
25E
100
AcDbEntity
  8
HeavyFill
100
AcDbBlockReference
  2
Slot
 10
225.0
 20
130.0
 30
0.0
 50
90.0
  0
CIRCLE
  5
14D
330
25E
100
AcDbEntity
  8
Cut
100
AcDbCircle
 10
163.7
 20
310.0
 30
0.0
 40
10.0
  0
CIRCLE
  5
14E
330
25E
100
AcDbEntity
  8
Cut
100
AcDbCircle
 10
125.0
 20
290.0
 30
0.0
 40
2.5
  0
LINE
  5
153
330
25E
100
AcDbEntity
  8
Cut
100
AcDbLine
 10
265.0
 20
110.0
 30
0.0
 11
265.0
 21
110.0
 31
0.0
  0
INSERT
  5
154
330
25E
100
AcDbEntity
  8
Cut
100
AcDbBlockReference
  2
LongSlot
 10
220.0
 20
70.0
 30
0.0
  0
INSERT
  5
155
330
25E
100
AcDbEntity
  8
Cut
100
AcDbBlockReference
  2
LongSlot
 10
110.0
 20
70.0
 30
0.0
 50
180.0
  0
INSERT
  5
156
330
25E
100
AcDbEntity
  8
Cut
100
AcDbBlockReference
  2
LongSlot
 10
110.0
 20
230.0
 30
0.0
 50
180.0
  0
INSERT
  5
157
330
25E
100
AcDbEntity
  8
Cut
100
AcDbBlockReference
  2
LongSlot
 10
220.0
 20
230.0
 30
0.0
  0
INSERT
  5
158
330
25E
100
AcDbEntity
  8
Cut
100
AcDbBlockReference
  2
LongTab
 10
260.0
 20
110.0
 30
0.0
  0
INSERT
  5
159
330
25E
100
AcDbEntity
  8
Cut
100
AcDbBlockReference
  2
LongTab
 10
70.0
 20
110.0
 30
0.0
  0
INSERT
  5
15A
330
25E
100
AcDbEntity
  8
Cut
100
AcDbBlockReference
  2
LongTab
 10
260.0
 20
190.0
 30
0.0
 50
180.0
  0
INSERT
  5
15B
330
25E
100
AcDbEntity
  8
Cut
100
AcDbBlockReference
  2
LongTab
 10
70.0
 20
190.0
 30
0.0
 50
180.0
  0
LINE
  5
173
330
25E
100
AcDbEntity
  8
Cut
100
AcDbLine
 10
143.3333333333333
 20
90.0
 30
0.0
 11
140.0
 21
90.0
 31
0.0
  0
LINE
  5
174
330
25E
100
AcDbEntity
  8
Cut
100
AcDbLine
 10
150.0
 20
90.0
 30
0.0
 11
146.6666666666667
 21
90.0
 31
0.0
  0
LINE
  5
175
330
25E
100
AcDbEntity
  8
Cut
100
AcDbLine
 10
183.3333333333333
 20
90.0
 30
0.0
 11
180.0
 21
90.0
 31
0.0
  0
LINE
  5
176
330
25E
100
AcDbEntity
  8
Cut
100
AcDbLine
 10
190.0
 20
90.0
 30
0.0
 11
186.6666666666667
 21
90.0
 31
0.0
  0
LINE
  5
177
330
25E
100
AcDbEntity
  8
Cut
100
AcDbLine
 10
186.6666666666667
 20
50.0
 30
0.0
 11
190.0
 21
50.0
 31
0.0
  0
LINE
  5
178
330
25E
100
AcDbEntity
  8
Cut
100
AcDbLine
 10
200.0
 20
50.0
 30
0.0
 11
220.0
 21
50.0
 31
0.0
  0
LINE
  5
179
330
25E
100
AcDbEntity
  8
Cut
100
AcDbLine
 10
160.0
 20
50.0
 30
0.0
 11
170.0
 21
50.0
 31
0.0
  0
LINE
  5
17A
330
25E
100
AcDbEntity
  8
Cut
100
AcDbLine
 10
146.6666666666667
 20
50.0
 30
0.0
 11
150.0
 21
50.0
 31
0.0
  0
LINE
  5
17B
330
25E
100
AcDbEntity
  8
Cut
100
AcDbLine
 10
220.0
 20
80.0
 30
0.0
 11
220.0
 21
90.0
 31
0.0
  0
LINE
  5
17C
330
25E
100
AcDbEntity
  8
Cut
100
AcDbLine
 10
110.0
 20
60.0
 30
0.0
 11
110.0
 21
50.0
 31
0.0
  0
LINE
  5
17D
330
25E
100
AcDbEntity
  8
Cut
100
AcDbLine
 10
250.0
 20
110.0
 30
0.0
 11
270.0
 21
110.0
 31
0.0
  0
LINE
  5
17E
330
25E
100
AcDbEntity
  8
Cut
100
AcDbLine
 10
280.0
 20
113.0
 30
0.0
 11
280.0
 21
115.0
 31
0.0
  0
LINE
  5
17F
330
25E
100
AcDbEntity
  8
Cut
100
AcDbLine
 10
280.0
 20
131.6666666666667
 30
0.0
 11
280.0
 21
135.0
 31
0.0
  0
LINE
  5
180
330
25E
100
AcDbEntity
  8
Cut
100
AcDbLine
 10
240.0
 20
128.3333333333333
 30
0.0
 11
240.0
 21
125.0
 31
0.0
  0
LINE
  5
181
330
25E
100
AcDbEntity
  8
Cut
100
AcDbLine
 10
240.0
 20
115.0
 30
0.0
 11
240.0
 21
113.0
 31
0.0
  0
LINE
  5
182
330
25E
100
AcDbEntity
  8
Cut
100
AcDbLine
 10
280.0
 20
125.0
 30
0.0
 11
280.0
 21
128.3333333333333
 31
0.0
  0
LINE
  5
183
330
25E
100
AcDbEntity
  8
Cut
100
AcDbLine
 10
280.0
 20
171.6666666666667
 30
0.0
 11
280.0
 21
175.0
 31
0.0
  0
LINE
  5
184
330
25E
100
AcDbEntity
  8
Cut
100
AcDbLine
 10
240.0
 20
168.3333333333333
 30
0.0
 11
240.0
 21
165.0
 31
0.0
  0
LINE
  5
185
330
25E
100
AcDbEntity
  8
Cut
100
AcDbLine
 10
240.0
 20
155.0
 30
0.0
 11
240.0
 21
145.0
 31
0.0
  0
LINE
  5
186
330
25E
100
AcDbEntity
  8
Cut
100
AcDbLine
 10
280.0
 20
165.0
 30
0.0
 11
280.0
 21
168.3333333333333
 31
0.0
  0
LINE
  5
187
330
25E
100
AcDbEntity
  8
Cut
100
AcDbLine
 10
240.0
 20
187.0
 30
0.0
 11
240.0
 21
185.0
 31
0.0
  0
LINE
  5
188
330
25E
100
AcDbEntity
  8
Cut
100
AcDbLine
 10
270.0
 20
190.0
 30
0.0
 11
250.0
 21
190.0
 31
0.0
  0
LINE
  5
189
330
25E
100
AcDbEntity
  8
Cut
100
AcDbLine
 10
90.0
 20
113.0
 30
0.0
 11
90.0
 21
114.0
 31
0.0
  0
LINE
  5
18A
330
25E
100
AcDbEntity
  8
Cut
100
AcDbLine
 10
60.0
 20
110.0
 30
0.0
 11
80.0
 21
110.0
 31
0.0
  0
LINE
  5
18B
330
25E
100
AcDbEntity
  8
Cut
100
AcDbLine
 10
50.0
 20
187.0
 30
0.0
 11
50.0
 21
185.0
 31
0.0
  0
LINE
  5
18C
330
25E
100
AcDbEntity
  8
Cut
100
AcDbLine
 10
80.0
 20
190.0
 30
0.0
 11
60.0
 21
190.0
 31
0.0
  0
LINE
  5
18D
330
25E
100
AcDbEntity
  8
Cut
100
AcDbLine
 10
90.0
 20
185.0
 30
0.0
 11
90.0
 21
187.0
 31
0.0
  0
LINE
  5
193
330
25E
100
AcDbEntity
  8
Cut
100
AcDbLine
 10
50.0
 20
134.0
 30
0.0
 11
50.0
 21
131.6666666666667
 31
0.0
  0
LINE
  5
195
330
25E
100
AcDbEntity
  8
Cut
100
AcDbLine
 10
50.0
 20
175.0
 30
0.0
 11
50.0
 21
171.6666666666667
 31
0.0
  0
LINE
  5
196
330
25E
100
AcDbEntity
  8
Cut
100
AcDbLine
 10
240.0
 20
175.0
 30
0.0
 11
240.0
 21
171.6666666666667
 31
0.0
  0
LINE
  5
197
330
25E
100
AcDbEntity
  8
Cut
100
AcDbLine
 10
280.0
 20
185.0
 30
0.0
 11
280.0
 21
187.0
 31
0.0
  0
LINE
  5
198
330
25E
100
AcDbEntity
  8
Cut
100
AcDbLine
 10
280.0
 20
145.0
 30
0.0
 11
280.0
 21
155.0
 31
0.0
  0
LINE
  5
199
330
25E
100
AcDbEntity
  8
Cut
100
AcDbLine
 10
240.0
 20
135.0
 30
0.0
 11
240.0
 21
131.6666666666667
 31
0.0
  0
LINE
  5
19A
330
25E
100
AcDbEntity
  8
Cut
100
AcDbLine
 10
110.0
 20
220.0
 30
0.0
 11
110.0
 21
210.0
 31
0.0
  0
LINE
  5
19B
330
25E
100
AcDbEntity
  8
Cut
100
AcDbLine
 10
220.0
 20
240.0
 30
0.0
 11
220.0
 21
250.0
 31
0.0
  0
LINE
  5
19C
330
25E
100
AcDbEntity
  8
Cut
100
AcDbLine
 10
183.3333333333333
 20
250.0
 30
0.0
 11
180.0
 21
250.0
 31
0.0
  0
LINE
  5
19D
330
25E
100
AcDbEntity
  8
Cut
100
AcDbLine
 10
186.6666666666667
 20
210.0
 30
0.0
 11
190.0
 21
210.0
 31
0.0
  0
LINE
  5
19E
330
25E
100
AcDbEntity
  8
Cut
100
AcDbLine
 10
200.0
 20
210.0
 30
0.0
 11
220.0
 21
210.0
 31
0.0
  0
LINE
  5
19F
330
25E
100
AcDbEntity
  8
Cut
100
AcDbLine
 10
180.0
 20
210.0
 30
0.0
 11
183.3333333333333
 21
210.0
 31
0.0
  0
LINE
  5
1A0
330
25E
100
AcDbEntity
  8
Cut
100
AcDbLine
 10
160.0
 20
210.0
 30
0.0
 11
170.0
 21
210.0
 31
0.0
  0
LINE
  5
1A1
330
25E
100
AcDbEntity
  8
Cut
100
AcDbLine
 10
146.6666666666667
 20
210.0
 30
0.0
 11
150.0
 21
210.0
 31
0.0
  0
LINE
  5
1A2
330
25E
100
AcDbEntity
  8
Cut
100
AcDbLine
 10
140.0
 20
210.0
 30
0.0
 11
143.3333333333333
 21
210.0
 31
0.0
  0
LINE
  5
1A3
330
25E
100
AcDbEntity
  8
Cut
100
AcDbLine
 10
143.3333333333333
 20
250.0
 30
0.0
 11
140.0
 21
250.0
 31
0.0
  0
LINE
  5
1A4
330
25E
100
AcDbEntity
  8
Cut
100
AcDbLine
 10
130.0
 20
250.0
 30
0.0
 11
110.0
 21
250.0
 31
0.0
  0
LINE
  5
1A5
330
25E
100
AcDbEntity
  8
Cut
100
AcDbLine
 10
150.0
 20
250.0
 30
0.0
 11
146.6666666666667
 21
250.0
 31
0.0
  0
LINE
  5
1A6
330
25E
100
AcDbEntity
  8
Cut
100
AcDbLine
 10
170.0
 20
250.0
 30
0.0
 11
160.0
 21
250.0
 31
0.0
  0
LINE
  5
1A7
330
25E
100
AcDbEntity
  8
Cut
100
AcDbLine
 10
190.0
 20
250.0
 30
0.0
 11
186.6666666666667
 21
250.0
 31
0.0
  0
LINE
  5
1A8
330
25E
100
AcDbEntity
  8
Cut
100
AcDbLine
 10
180.0
 20
50.0
 30
0.0
 11
183.3333333333333
 21
50.0
 31
0.0
  0
LINE
  5
1A9
330
25E
100
AcDbEntity
  8
Cut
100
AcDbLine
 10
140.0
 20
50.0
 30
0.0
 11
143.3333333333333
 21
50.0
 31
0.0
  0
LINE
  5
1AA
330
25E
100
AcDbEntity
  8
Cut
100
AcDbLine
 10
49.99999999999999
 20
155.0
 30
0.0
 11
50.0
 21
145.0
 31
0.0
  0
LINE
  5
1AB
330
25E
100
AcDbEntity
  8
Cut
100
AcDbLine
 10
160.0
 20
90.0
 30
0.0
 11
170.0
 21
90.0
 31
0.0
  0
LINE
  5
1AC
330
25E
100
AcDbEntity
  8
Cut
100
AcDbLine
 10
110.0
 20
90.0
 30
0.0
 11
130.0
 21
90.0
 31
0.0
  0
LINE
  5
1AD
330
25E
100
AcDbEntity
  8
Cut
100
AcDbLine
 10
49.99999999999999
 20
114.0
 30
0.0
 11
50.0
 21
113.0
 31
0.0
  0
LINE
  5
1AE
330
25E
100
AcDbEntity
  8
Cut
100
AcDbLine
 10
90.0
 20
145.0
 30
0.0
 11
90.0
 21
155.0
 31
0.0
  0
LINE
  5
1B1
330
25E
100
AcDbEntity
  8
Cut
100
AcDbLine
 10
49.99999999999999
 20
115.0
 30
0.0
 11
50.0
 21
114.0
 31
0.0
  0
LINE
  5
1B2
330
25E
100
AcDbEntity
  8
Cut
100
AcDbLine
 10
50.0
 20
114.0
 30
0.0
 11
50.0
 21
114.0
 31
0.0
  0
LINE
  5
1B3
330
25E
100
AcDbEntity
  8
Cut
100
AcDbLine
 10
90.0
 20
114.0
 30
0.0
 11
90.0
 21
115.0
 31
0.0
  0
INSERT
  5
1B9
330
25E
100
AcDbEntity
  8
HeavyFill
100
AcDbBlockReference
  2
Slot
 10
225.0
 20
330.0
 30
0.0
 50
90.0
  0
INSERT
  5
1BA
330
25E
100
AcDbEntity
  8
HeavyFill
100
AcDbBlockReference
  2
Slot
 10
225.0
 20
290.0
 30
0.0
 50
90.0
  0
INSERT
  5
1BB
330
25E
100
AcDbEntity
  8
HeavyFill
100
AcDbBlockReference
  2
Slot
 10
105.0
 20
330.0
 30
0.0
 50
270.0
  0
INSERT
  5
1BC
330
25E
100
AcDbEntity
  8
HeavyFill
100
AcDbBlockReference
  2
Slot
 10
105.0
 20
290.0
 30
0.0
 50
270.0
  0
LINE
  5
1FE
330
25E
100
AcDbEntity
  8
Cut
100
AcDbLine
 10
90.0
 20
135.0
 30
0.0
 11
93.0
 21
135.0
 31
0.0
  0
LINE
  5
1FF
330
25E
100
AcDbEntity
  8
Cut
100
AcDbLine
 10
93.0
 20
135.0
 30
0.0
 11
93.0
 21
145.0
 31
0.0
  0
LINE
  5
200
330
25E
100
AcDbEntity
  8
Cut
100
AcDbLine
 10
93.0
 20
145.0
 30
0.0
 11
90.0
 21
145.0
 31
0.0
  0
LINE
  5
201
330
25E
100
AcDbEntity
  8
Cut
100
AcDbLine
 10
90.0
 20
115.0
 30
0.0
 11
93.0
 21
115.0
 31
0.0
  0
LINE
  5
202
330
25E
100
AcDbEntity
  8
Cut
100
AcDbLine
 10
93.0
 20
115.0
 30
0.0
 11
93.0
 21
125.0
 31
0.0
  0
LINE
  5
203
330
25E
100
AcDbEntity
  8
Cut
100
AcDbLine
 10
93.0
 20
125.0
 30
0.0
 11
90.0
 21
125.0
 31
0.0
  0
LINE
  5
208
330
25E
100
AcDbEntity
  8
Cut
100
AcDbLine
 10
105.0
 20
135.0
 30
0.0
 11
108.0
 21
135.0
 31
0.0
  0
LINE
  5
209
330
25E
100
AcDbEntity
  8
Cut
100
AcDbLine
 10
108.0
 20
135.0
 30
0.0
 11
108.0
 21
145.0
 31
0.0
  0
LINE
  5
20A
330
25E
100
AcDbEntity
  8
Cut
100
AcDbLine
 10
108.0
 20
145.0
 30
0.0
 11
105.0
 21
145.0
 31
0.0
  0
LINE
  5
20B
330
25E
100
AcDbEntity
  8
Cut
100
AcDbLine
 10
105.0
 20
125.0
 30
0.0
 11
108.0
 21
125.0
 31
0.0
  0
LINE
  5
20C
330
25E
100
AcDbEntity
  8
Cut
100
AcDbLine
 10
108.0
 20
125.0
 30
0.0
 11
108.0
 21
115.0
 31
0.0
  0
LINE
  5
20D
330
25E
100
AcDbEntity
  8
Cut
100
AcDbLine
 10
108.0
 20
115.0
 30
0.0
 11
105.0
 21
115.0
 31
0.0
  0
LINE
  5
20E
330
25E
100
AcDbEntity
  8
Cut
100
AcDbLine
 10
105.0
 20
115.0
 30
0.0
 11
105.0
 21
125.0
 31
0.0
  0
LINE
  5
210
330
25E
100
AcDbEntity
  8
Cut
100
AcDbLine
 10
105.0
 20
145.0
 30
0.0
 11
105.0
 21
135.0
 31
0.0
  0
LINE
  5
211
330
25E
100
AcDbEntity
  8
Cut
100
AcDbLine
 10
90.0
 20
135.0
 30
0.0
 11
90.0
 21
125.0
 31
0.0
  0
LINE
  5
212
330
25E
100
AcDbEntity
  8
Cut
100
AcDbLine
 10
85.0
 20
120.0
 30
0.0
 11
63.0
 21
120.0
 31
0.0
  0
LINE
  5
213
330
25E
100
AcDbEntity
  8
Cut
100
AcDbLine
 10
61.0
 20
122.0
 30
0.0
 11
61.0
 21
160.0
 31
0.0
  0
LINE
  5
214
330
25E
100
AcDbEntity
  8
Cut
100
AcDbLine
 10
63.0
 20
180.0
 30
0.0
 11
85.0
 21
180.0
 31
0.0
  0
LINE
  5
215
330
25E
100
AcDbEntity
  8
Cut
100
AcDbLine
 10
87.0
 20
160.0
 30
0.0
 11
87.0
 21
122.0
 31
0.0
  0
LINE
  5
216
330
25E
100
AcDbEntity
  8
Cut
100
AcDbLine
 10
87.0
 20
120.0
 30
0.0
 11
87.0
 21
120.0
 31
0.0
  0
LINE
  5
21B
330
25E
100
AcDbEntity
  8
Cut
100
AcDbLine
 10
105.0
 20
175.0
 30
0.0
 11
108.0
 21
175.0
 31
0.0
  0
LINE
  5
21C
330
25E
100
AcDbEntity
  8
Cut
100
AcDbLine
 10
108.0
 20
175.0
 30
0.0
 11
108.0
 21
185.0
 31
0.0
  0
LINE
  5
21D
330
25E
100
AcDbEntity
  8
Cut
100
AcDbLine
 10
108.0
 20
185.0
 30
0.0
 11
105.0
 21
185.0
 31
0.0
  0
LINE
  5
21E
330
25E
100
AcDbEntity
  8
Cut
100
AcDbLine
 10
105.0
 20
165.0
 30
0.0
 11
108.0
 21
165.0
 31
0.0
  0
LINE
  5
21F
330
25E
100
AcDbEntity
  8
Cut
100
AcDbLine
 10
108.0
 20
165.0
 30
0.0
 11
108.0
 21
155.0
 31
0.0
  0
LINE
  5
220
330
25E
100
AcDbEntity
  8
Cut
100
AcDbLine
 10
108.0
 20
155.0
 30
0.0
 11
105.0
 21
155.0
 31
0.0
  0
LINE
  5
221
330
25E
100
AcDbEntity
  8
Cut
100
AcDbLine
 10
105.0
 20
155.0
 30
0.0
 11
105.0
 21
165.0
 31
0.0
  0
LINE
  5
223
330
25E
100
AcDbEntity
  8
Cut
100
AcDbLine
 10
105.0
 20
185.0
 30
0.0
 11
105.0
 21
175.0
 31
0.0
  0
LINE
  5
22D
330
25E
100
AcDbEntity
  8
Cut
100
AcDbLine
 10
90.0
 20
175.0
 30
0.0
 11
93.0
 21
175.0
 31
0.0
  0
LINE
  5
22E
330
25E
100
AcDbEntity
  8
Cut
100
AcDbLine
 10
93.0
 20
175.0
 30
0.0
 11
93.0
 21
185.0
 31
0.0
  0
LINE
  5
22F
330
25E
100
AcDbEntity
  8
Cut
100
AcDbLine
 10
93.0
 20
185.0
 30
0.0
 11
90.0
 21
185.0
 31
0.0
  0
LINE
  5
230
330
25E
100
AcDbEntity
  8
Cut
100
AcDbLine
 10
90.0
 20
155.0
 30
0.0
 11
93.0
 21
155.0
 31
0.0
  0
LINE
  5
231
330
25E
100
AcDbEntity
  8
Cut
100
AcDbLine
 10
93.0
 20
155.0
 30
0.0
 11
93.0
 21
165.0
 31
0.0
  0
LINE
  5
232
330
25E
100
AcDbEntity
  8
Cut
100
AcDbLine
 10
93.0
 20
165.0
 30
0.0
 11
90.0
 21
165.0
 31
0.0
  0
LINE
  5
237
330
25E
100
AcDbEntity
  8
Cut
100
AcDbLine
 10
90.0
 20
175.0
 30
0.0
 11
90.0
 21
165.0
 31
0.0
  0
LINE
  5
238
330
25E
100
AcDbEntity
  8
Cut
100
AcDbLine
 10
61.0
 20
160.0
 30
0.0
 11
61.0
 21
178.0
 31
0.0
  0
LINE
  5
239
330
25E
100
AcDbEntity
  8
Cut
100
AcDbLine
 10
87.0
 20
160.0
 30
0.0
 11
87.0
 21
178.0
 31
0.0
  0
ARC
  5
23A
330
25E
100
AcDbEntity
  8
Cut
100
AcDbCircle
 10
63.0
 20
178.0
 30
0.0
 40
2.0
100
AcDbArc
 50
90.0
 51
180.0
  0
ARC
  5
23B
330
25E
100
AcDbEntity
  8
Cut
100
AcDbCircle
 10
85.0
 20
178.0
 30
0.0
 40
2.0
100
AcDbArc
 50
0.0
 51
90.0
  0
ARC
  5
23D
330
25E
100
AcDbEntity
  8
Cut
100
AcDbCircle
 10
63.0
 20
122.0
 30
0.0
 40
2.0
100
AcDbArc
 50
180.0
 51
270.0
  0
ARC
  5
23E
330
25E
100
AcDbEntity
  8
Cut
100
AcDbCircle
 10
85.0
 20
122.0
 30
0.0
 40
2.0
100
AcDbArc
 50
270.0
 51
0.0
  0
ENDSEC
  0
SECTION
  2
OBJECTS
  0
DICTIONARY
  5
24C
330
0
100
AcDbDictionary
281
     1
  3
ACAD_GROUP
350
24D
  3
ACAD_LAYOUT
350
259
  3
ACAD_MATERIAL
350
27A
  3
ACAD_MLEADERSTYLE
350
2C5
  3
ACAD_MLINESTYLE
350
256
  3
ACAD_PLOTSETTINGS
350
258
  3
ACAD_PLOTSTYLENAME
350
24E
  3
ACAD_TABLESTYLE
350
2C4
  3
ACAD_VISUALSTYLE
350
269
  3
QCAD_OBJECTS
350
27F
  0
DICTIONARY
  5
24D
102
{ACAD_REACTORS
330
24C
102
}
330
24C
100
AcDbDictionary
281
     1
  0
DICTIONARY
  5
259
102
{ACAD_REACTORS
330
24C
102
}
330
24C
100
AcDbDictionary
281
     1
  3
Layout1
350
25D
  3
Layout2
350
265
  3
Model
350
261
  0
DICTIONARY
  5
27A
102
{ACAD_REACTORS
330
24C
102
}
330
24C
100
AcDbDictionary
281
     1
  3
ByBlock
350
27C
  3
ByLayer
350
27B
  3
Global
350
27D
  0
DICTIONARY
  5
2C5
102
{ACAD_REACTORS
330
24C
102
}
330
24C
100
AcDbDictionary
281
     1
  0
DICTIONARY
  5
256
102
{ACAD_REACTORS
330
24C
102
}
330
24C
100
AcDbDictionary
281
     1
  3
Standard
350
257
  0
DICTIONARY
  5
258
102
{ACAD_REACTORS
330
24C
102
}
330
24C
100
AcDbDictionary
281
     1
  0
ACDBDICTIONARYWDFLT
  5
24E
102
{ACAD_REACTORS
330
24C
102
}
330
24C
100
AcDbDictionary
281
     1
  3
Normal
350
24F
100
AcDbDictionaryWithDefault
340
24F
  0
DICTIONARY
  5
2C4
102
{ACAD_REACTORS
330
24C
102
}
330
24C
100
AcDbDictionary
281
     1
  0
DICTIONARY
  5
269
102
{ACAD_REACTORS
330
24C
102
}
330
24C
100
AcDbDictionary
281
     1
  3
2dWireframe
350
26E
  3
3D Hidden
350
270
  3
3dWireframe
350
26F
  3
Basic
350
271
  3
Brighten
350
275
  3
ColorChange
350
279
  3
Conceptual
350
273
  3
Dim
350
274
  3
Facepattern
350
278
  3
Flat
350
26A
  3
FlatWithEdges
350
26B
  3
Gouraud
350
26C
  3
GouraudWithEdges
350
26D
  3
Linepattern
350
277
  3
Realistic
350
272
  3
Thicken
350
276
  0
DICTIONARY
  5
27F
102
{ACAD_REACTORS
330
24C
102
}
330
24C
100
AcDbDictionary
281
     1
  3
Grid/DisplayGrid
350
291
  3
Grid/GridSpacingX
350
28A
  3
Grid/GridSpacingY
350
28C
  3
Grid/MetaGridSpacingX
350
283
  3
Grid/MetaGridSpacingY
350
287
  3
MultiPageSettings/Columns
350
288
  3
MultiPageSettings/GlueMarginBottom
350
284
  3
MultiPageSettings/GlueMarginsLeft
350
28D
  3
MultiPageSettings/GlueMarginsRight
350
280
  3
MultiPageSettings/GlueMarginsTop
350
295
  3
MultiPageSettings/PrintCropMarks
350
282
  3
MultiPageSettings/Rows
350
28E
  3
PageSettings/OffsetX
350
293
  3
PageSettings/OffsetY
350
294
  3
PageSettings/PageOrientation
350
281
  3
PageSettings/PaperHeight
350
286
  3
PageSettings/PaperSizeName
350
289
  3
PageSettings/PaperWidth
350
28F
  3
PageSettings/Scale
350
285
  3
PageSettings/ShowBoundingBox
350
28B
  3
PageSettings/ShowPageBorders
350
292
  3
UnitSettings/PaperUnit
350
290
  0
LAYOUT
  5
25D
102
{ACAD_REACTORS
330
259
102
}
330
259
100
AcDbPlotSettings
  1

  2
none_device
  4

  6

 40
0.0
 41
0.0
 42
0.0
 43
0.0
 44
0.0
 45
0.0
 46
0.0
 47
0.0
 48
0.0
 49
0.0
140
0.0
141
0.0
142
1.0
143
1.0
 70
   688
 72
     0
 73
     0
 74
     5
  7

 75
    16
 76
     0
 77
     2
 78
   300
147
1.0
148
0.0
149
0.0
100
AcDbLayout
  1
Layout1
 70
     1
 71
     1
 10
0.0
 20
0.0
 11
12.0
 21
9.0
 12
0.0
 22
0.0
 32
0.0
 14
1.000000000000000E+20
 24
1.000000000000000E+20
 34
1.000000000000000E+20
 15
-1.000000000000000E+20
 25
-1.000000000000000E+20
 35
-1.000000000000000E+20
146
0.0
 13
0.0
 23
0.0
 33
0.0
 16
1.0
 26
0.0
 36
0.0
 17
0.0
 27
1.0
 37
0.0
 76
     0
330
25A
  0
LAYOUT
  5
265
102
{ACAD_REACTORS
330
259
102
}
330
259
100
AcDbPlotSettings
  1

  2
none_device
  4

  6

 40
0.0
 41
0.0
 42
0.0
 43
0.0
 44
0.0
 45
0.0
 46
0.0
 47
0.0
 48
0.0
 49
0.0
140
0.0
141
0.0
142
1.0
143
1.0
 70
   688
 72
     0
 73
     0
 74
     5
  7

 75
    16
 76
     0
 77
     2
 78
   300
147
1.0
148
0.0
149
0.0
100
AcDbLayout
  1
Layout2
 70
     1
 71
     2
 10
0.0
 20
0.0
 11
0.0
 21
0.0
 12
0.0
 22
0.0
 32
0.0
 14
0.0
 24
0.0
 34
0.0
 15
0.0
 25
0.0
 35
0.0
146
0.0
 13
0.0
 23
0.0
 33
0.0
 16
1.0
 26
0.0
 36
0.0
 17
0.0
 27
1.0
 37
0.0
 76
     0
330
262
  0
LAYOUT
  5
261
102
{ACAD_REACTORS
330
259
102
}
330
259
100
AcDbPlotSettings
  1

  2
none_device
  4

  6

 40
0.0
 41
0.0
 42
0.0
 43
0.0
 44
0.0
 45
0.0
 46
0.0
 47
0.0
 48
0.0
 49
0.0
140
0.0
141
0.0
142
1.0
143
1.0
 70
  1712
 72
     0
 73
     0
 74
     0
  7

 75
     0
 76
     0
 77
     2
 78
   300
147
1.0
148
0.0
149
0.0
100
AcDbLayout
  1
Model
 70
     1
 71
     0
 10
0.0
 20
0.0
 11
12.0
 21
9.0
 12
0.0
 22
0.0
 32
0.0
 14
1.000000000000000E+20
 24
1.000000000000000E+20
 34
1.000000000000000E+20
 15
-1.000000000000000E+20
 25
-1.000000000000000E+20
 35
-1.000000000000000E+20
146
0.0
 13
0.0
 23
0.0
 33
0.0
 16
1.0
 26
0.0
 36
0.0
 17
0.0
 27
1.0
 37
0.0
 76
     0
330
25E
331
268
  0
MATERIAL
  5
27C
102
{ACAD_REACTORS
330
27A
102
}
330
27A
100
AcDbMaterial
  1
ByBlock
 72
     1
 94
      127
  0
MATERIAL
  5
27B
102
{ACAD_REACTORS
330
27A
102
}
330
27A
100
AcDbMaterial
  1
ByLayer
 72
     1
 94
      127
  0
MATERIAL
  5
27D
102
{ACAD_REACTORS
330
27A
102
}
330
27A
100
AcDbMaterial
  1
Global
 72
     1
 94
      127
  0
MLINESTYLE
  5
257
102
{ACAD_REACTORS
330
256
102
}
330
256
100
AcDbMlineStyle
  2
Standard
 70
     0
  3

 62
   256
 51
90.0
 52
90.0
 71
     2
 49
0.5
 62
   256
  6
BYLAYER
 49
-0.5
 62
   256
  6
BYLAYER
  0
ACDBPLACEHOLDER
  5
24F
102
{ACAD_REACTORS
330
24E
102
}
330
24E
  0
VISUALSTYLE
  5
26E
102
{ACAD_REACTORS
330
269
102
}
330
269
100
AcDbVisualStyle
  2
2dWireframe
 70
     4
177
     2
291
     0
 71
     0
176
     1
 72
     2
176
     1
 73
     0
176
     1
 90
        0
176
     1
 40
-0.6
176
     1
 41
-30.0
176
     1
 62
     5
 63
     7
421
 16777215
176
     1
 74
     1
176
     1
 91
        4
176
     1
 64
     7
176
     1
 65
   257
176
     1
 75
     1
176
     1
175
     1
176
     1
 42
1.0
176
     1
 92
        0
176
     1
 66
   257
176
     1
 43
1.0
176
     1
 76
     1
176
     1
 77
     6
176
     1
 78
     2
176
     1
 67
     7
176
     1
 79
     5
176
     1
170
     0
176
     1
171
     0
176
     1
290
     0
176
     1
 93
        1
176
     1
 44
0.0
176
     1
173
     0
176
     1
  0
VISUALSTYLE
  5
270
102
{ACAD_REACTORS
330
269
102
}
330
269
100
AcDbVisualStyle
  2
3D Hidden
 70
     6
177
     2
291
     0
 71
     1
176
     1
 72
     2
176
     1
 73
     2
176
     1
 90
        0
176
     1
 40
-0.6
176
     1
 41
-30.0
176
     1
 62
     5
 63
     7
421
 16777215
176
     1
 74
     2
176
     1
 91
        2
176
     1
 64
     7
176
     1
 65
   257
176
     1
 75
     2
176
     1
175
     1
176
     1
 42
40.0
176
     1
 92
        0
176
     1
 66
   257
176
     1
 43
1.0
176
     1
 76
     1
176
     1
 77
     6
176
     1
 78
     2
176
     1
 67
     7
176
     1
 79
     3
176
     1
170
     0
176
     1
171
     0
176
     1
290
     0
176
     1
 93
        1
176
     1
 44
0.0
176
     1
173
     0
176
     1
  0
VISUALSTYLE
  5
26F
102
{ACAD_REACTORS
330
269
102
}
330
269
100
AcDbVisualStyle
  2
3dWireframe
 70
     5
177
     2
291
     0
 71
     0
176
     1
 72
     2
176
     1
 73
     0
176
     1
 90
        0
176
     1
 40
-0.6
176
     1
 41
-30.0
176
     1
 62
     5
 63
     7
421
 16777215
176
     1
 74
     1
176
     1
 91
        4
176
     1
 64
     7
176
     1
 65
   257
176
     1
 75
     1
176
     1
175
     1
176
     1
 42
1.0
176
     1
 92
        0
176
     1
 66
   257
176
     1
 43
1.0
176
     1
 76
     1
176
     1
 77
     6
176
     1
 78
     2
176
     1
 67
     7
176
     1
 79
     5
176
     1
170
     0
176
     1
171
     0
176
     1
290
     0
176
     1
 93
        1
176
     1
 44
0.0
176
     1
173
     0
176
     1
  0
VISUALSTYLE
  5
271
102
{ACAD_REACTORS
330
269
102
}
330
269
100
AcDbVisualStyle
  2
Basic
 70
     7
177
     2
291
     1
 71
     1
176
     1
 72
     0
176
     1
 73
     1
176
     1
 90
        0
176
     1
 40
-0.6
176
     1
 41
-30.0
176
     1
 62
     5
 63
     7
421
 16777215
176
     1
 74
     0
176
     1
 91
        4
176
     1
 64
     7
176
     1
 65
   257
176
     1
 75
     1
176
     1
175
     1
176
     1
 42
1.0
176
     1
 92
        8
176
     1
 66
     7
176
     1
 43
1.0
176
     1
 76
     1
176
     1
 77
     6
176
     1
 78
     2
176
     1
 67
     7
176
     1
 79
     5
176
     1
170
     0
176
     1
171
     0
176
     1
290
     0
176
     1
 93
        1
176
     1
 44
0.0
176
     1
173
     0
176
     1
  0
VISUALSTYLE
  5
275
102
{ACAD_REACTORS
330
269
102
}
330
269
100
AcDbVisualStyle
  2
Brighten
 70
    12
177
     2
291
     1
 71
     2
176
     1
 72
     2
176
     1
 73
     0
176
     1
 90
        0
176
     1
 40
-0.6
176
     1
 41
-30.0
176
     1
 62
     5
 63
     7
421
 16777215
176
     1
 74
     1
176
     1
 91
        4
176
     1
 64
     7
176
     1
 65
   257
176
     1
 75
     1
176
     1
175
     1
176
     1
 42
1.0
176
     1
 92
        8
176
     1
 66
     7
176
     1
 43
1.0
176
     1
 76
     1
176
     1
 77
     6
176
     1
 78
     2
176
     1
 67
     7
176
     1
 79
     5
176
     1
170
     0
176
     1
171
     0
176
     1
290
     0
176
     1
 93
        1
176
     1
 44
50.0
176
     1
173
     0
176
     1
  0
VISUALSTYLE
  5
279
102
{ACAD_REACTORS
330
269
102
}
330
269
100
AcDbVisualStyle
  2
ColorChange
 70
    16
177
     2
291
     1
 71
     2
176
     1
 72
     2
176
     1
 73
     3
176
     1
 90
        0
176
     1
 40
-0.6
176
     1
 41
-30.0
176
     1
 62
     5
 63
     8
421
  8421504
176
     1
 74
     1
176
     1
 91
        4
176
     1
 64
     7
176
     1
 65
   257
176
     1
 75
     1
176
     1
175
     1
176
     1
 42
1.0
176
     1
 92
        8
176
     1
 66
     8
424
  8421504
176
     1
 43
1.0
176
     1
 76
     1
176
     1
 77
     6
176
     1
 78
     2
176
     1
 67
     7
176
     1
 79
     5
176
     1
170
     0
176
     1
171
     0
176
     1
290
     0
176
     1
 93
        1
176
     1
 44
0.0
176
     1
173
     0
176
     1
  0
VISUALSTYLE
  5
273
102
{ACAD_REACTORS
330
269
102
}
330
269
100
AcDbVisualStyle
  2
Conceptual
 70
     9
177
     2
291
     0
 71
     3
176
     1
 72
     2
176
     1
 73
     0
176
     1
 90
        0
176
     1
 40
-0.6
176
     1
 41
-30.0
176
     1
 62
     5
 63
     7
421
 16777215
176
     1
 74
     2
176
     1
 91
        2
176
     1
 64
     7
176
     1
 65
   257
176
     1
 75
     1
176
     1
175
     1
176
     1
 42
40.0
176
     1
 92
        8
176
     1
 66
     7
176
     1
 43
1.0
176
     1
 76
     1
176
     1
 77
     6
176
     1
 78
     2
176
     1
 67
     7
176
     1
 79
     3
176
     1
170
     0
176
     1
171
     0
176
     1
290
     0
176
     1
 93
        1
176
     1
 44
0.0
176
     1
173
     0
176
     1
  0
VISUALSTYLE
  5
274
102
{ACAD_REACTORS
330
269
102
}
330
269
100
AcDbVisualStyle
  2
Dim
 70
    11
177
     2
291
     1
 71
     2
176
     1
 72
     2
176
     1
 73
     0
176
     1
 90
        0
176
     1
 40
-0.6
176
     1
 41
-30.0
176
     1
 62
     5
 63
     7
421
 16777215
176
     1
 74
     1
176
     1
 91
        4
176
     1
 64
     7
176
     1
 65
   257
176
     1
 75
     1
176
     1
175
     1
176
     1
 42
1.0
176
     1
 92
        8
176
     1
 66
     7
176
     1
 43
1.0
176
     1
 76
     1
176
     1
 77
     6
176
     1
 78
     2
176
     1
 67
     7
176
     1
 79
     5
176
     1
170
     0
176
     1
171
     0
176
     1
290
     0
176
     1
 93
        1
176
     1
 44
-50.0
176
     1
173
     0
176
     1
  0
VISUALSTYLE
  5
278
102
{ACAD_REACTORS
330
269
102
}
330
269
100
AcDbVisualStyle
  2
Facepattern
 70
    15
177
     2
291
     1
 71
     2
176
     1
 72
     2
176
     1
 73
     0
176
     1
 90
        0
176
     1
 40
-0.6
176
     1
 41
-30.0
176
     1
 62
     5
 63
     7
421
 16777215
176
     1
 74
     1
176
     1
 91
        4
176
     1
 64
     7
176
     1
 65
   257
176
     1
 75
     1
176
     1
175
     1
176
     1
 42
1.0
176
     1
 92
        8
176
     1
 66
     7
176
     1
 43
1.0
176
     1
 76
     1
176
     1
 77
     6
176
     1
 78
     2
176
     1
 67
     7
176
     1
 79
     5
176
     1
170
     0
176
     1
171
     0
176
     1
290
     0
176
     1
 93
        1
176
     1
 44
0.0
176
     1
173
     0
176
     1
  0
VISUALSTYLE
  5
26A
102
{ACAD_REACTORS
330
269
102
}
330
269
100
AcDbVisualStyle
  2
Flat
 70
     0
177
     2
291
     1
 71
     2
176
     1
 72
     1
176
     1
 73
     1
176
     1
 90
        2
176
     1
 40
-0.6
176
     1
 41
30.0
176
     1
 62
     5
 63
     7
421
 16777215
176
     1
 74
     0
176
     1
 91
        4
176
     1
 64
     7
176
     1
 65
   257
176
     1
 75
     1
176
     1
175
     1
176
     1
 42
1.0
176
     1
 92
        8
176
     1
 66
     7
176
     1
 43
1.0
176
     1
 76
     1
176
     1
 77
     6
176
     1
 78
     2
176
     1
 67
     7
176
     1
 79
     5
176
     1
170
     0
176
     1
171
     0
176
     1
290
     0
176
     1
 93
       13
176
     1
 44
0.0
176
     1
173
     0
176
     1
  0
VISUALSTYLE
  5
26B
102
{ACAD_REACTORS
330
269
102
}
330
269
100
AcDbVisualStyle
  2
FlatWithEdges
 70
     1
177
     2
291
     1
 71
     2
176
     1
 72
     1
176
     1
 73
     1
176
     1
 90
        2
176
     1
 40
-0.6
176
     1
 41
30.0
176
     1
 62
     5
 63
     7
421
 16777215
176
     1
 74
     1
176
     1
 91
        4
176
     1
 64
     7
176
     1
 65
   257
176
     1
 75
     1
176
     1
175
     1
176
     1
 42
1.0
176
     1
 92
        0
176
     1
 66
   257
176
     1
 43
1.0
176
     1
 76
     1
176
     1
 77
     6
176
     1
 78
     2
176
     1
 67
     7
176
     1
 79
     5
176
     1
170
     0
176
     1
171
     0
176
     1
290
     0
176
     1
 93
       13
176
     1
 44
0.0
176
     1
173
     0
176
     1
  0
VISUALSTYLE
  5
26C
102
{ACAD_REACTORS
330
269
102
}
330
269
100
AcDbVisualStyle
  2
Gouraud
 70
     2
177
     2
291
     1
 71
     2
176
     1
 72
     2
176
     1
 73
     1
176
     1
 90
        2
176
     1
 40
-0.6
176
     1
 41
30.0
176
     1
 62
     5
 63
     7
421
 16777215
176
     1
 74
     0
176
     1
 91
        4
176
     1
 64
     7
176
     1
 65
   257
176
     1
 75
     1
176
     1
175
     1
176
     1
 42
1.0
176
     1
 92
        0
176
     1
 66
     7
176
     1
 43
1.0
176
     1
 76
     1
176
     1
 77
     6
176
     1
 78
     2
176
     1
 67
     7
176
     1
 79
     5
176
     1
170
     0
176
     1
171
     0
176
     1
290
     0
176
     1
 93
       13
176
     1
 44
0.0
176
     1
173
     0
176
     1
  0
VISUALSTYLE
  5
26D
102
{ACAD_REACTORS
330
269
102
}
330
269
100
AcDbVisualStyle
  2
GouraudWithEdges
 70
     3
177
     2
291
     1
 71
     2
176
     1
 72
     2
176
     1
 73
     1
176
     1
 90
        2
176
     1
 40
-0.6
176
     1
 41
30.0
176
     1
 62
     5
 63
     7
421
 16777215
176
     1
 74
     1
176
     1
 91
        4
176
     1
 64
     7
176
     1
 65
   257
176
     1
 75
     1
176
     1
175
     1
176
     1
 42
1.0
176
     1
 92
        0
176
     1
 66
   257
176
     1
 43
1.0
176
     1
 76
     1
176
     1
 77
     6
176
     1
 78
     2
176
     1
 67
     7
176
     1
 79
     5
176
     1
170
     0
176
     1
171
     0
176
     1
290
     0
176
     1
 93
       13
176
     1
 44
0.0
176
     1
173
     0
176
     1
  0
VISUALSTYLE
  5
277
102
{ACAD_REACTORS
330
269
102
}
330
269
100
AcDbVisualStyle
  2
Linepattern
 70
    14
177
     2
291
     1
 71
     2
176
     1
 72
     2
176
     1
 73
     0
176
     1
 90
        0
176
     1
 40
-0.6
176
     1
 41
-30.0
176
     1
 62
     5
 63
     7
421
 16777215
176
     1
 74
     1
176
     1
 91
        4
176
     1
 64
     7
176
     1
 65
   257
176
     1
 75
     7
176
     1
175
     7
176
     1
 42
1.0
176
     1
 92
        8
176
     1
 66
     7
176
     1
 43
1.0
176
     1
 76
     1
176
     1
 77
     6
176
     1
 78
     2
176
     1
 67
     7
176
     1
 79
     5
176
     1
170
     0
176
     1
171
     0
176
     1
290
     0
176
     1
 93
        1
176
     1
 44
0.0
176
     1
173
     0
176
     1
  0
VISUALSTYLE
  5
272
102
{ACAD_REACTORS
330
269
102
}
330
269
100
AcDbVisualStyle
  2
Realistic
 70
     8
177
     2
291
     0
 71
     2
176
     1
 72
     2
176
     1
 73
     0
176
     1
 90
        0
176
     1
 40
-0.6
176
     1
 41
-30.0
176
     1
 62
     5
 63
     7
421
 16777215
176
     1
 74
     1
176
     1
 91
        0
176
     1
 64
     7
176
     1
 65
   257
176
     1
 75
     1
176
     1
175
     1
176
     1
 42
1.0
176
     1
 92
        8
176
     1
 66
     8
424
  7895160
176
     1
 43
1.0
176
     1
 76
     1
176
     1
 77
     6
176
     1
 78
     2
176
     1
 67
     7
176
     1
 79
     5
176
     1
170
     0
176
     1
171
     0
176
     1
290
     0
176
     1
 93
       13
176
     1
 44
0.0
176
     1
173
     0
176
     1
  0
VISUALSTYLE
  5
276
102
{ACAD_REACTORS
330
269
102
}
330
269
100
AcDbVisualStyle
  2
Thicken
 70
    13
177
     2
291
     1
 71
     2
176
     1
 72
     2
176
     1
 73
     0
176
     1
 90
        0
176
     1
 40
-0.6
176
     1
 41
-30.0
176
     1
 62
     5
 63
     7
421
 16777215
176
     1
 74
     1
176
     1
 91
        4
176
     1
 64
     7
176
     1
 65
   257
176
     1
 75
     1
176
     1
175
     1
176
     1
 42
1.0
176
     1
 92
       12
176
     1
 66
     7
176
     1
 43
1.0
176
     1
 76
     1
176
     1
 77
     6
176
     1
 78
     2
176
     1
 67
     7
176
     1
 79
     5
176
     1
170
     0
176
     1
171
     0
176
     1
290
     0
176
     1
 93
        1
176
     1
 44
0.0
176
     1
173
     0
176
     1
  0
XRECORD
  5
291
102
{ACAD_REACTORS
330
27F
102
}
330
27F
100
AcDbXrecord
280
     1
290
     1
  0
XRECORD
  5
28A
102
{ACAD_REACTORS
330
27F
102
}
330
27F
100
AcDbXrecord
280
     1
1000
auto
  0
XRECORD
  5
28C
102
{ACAD_REACTORS
330
27F
102
}
330
27F
100
AcDbXrecord
280
     1
1000
auto
  0
XRECORD
  5
283
102
{ACAD_REACTORS
330
27F
102
}
330
27F
100
AcDbXrecord
280
     1
1000
auto
  0
XRECORD
  5
287
102
{ACAD_REACTORS
330
27F
102
}
330
27F
100
AcDbXrecord
280
     1
1000
auto
  0
XRECORD
  5
288
102
{ACAD_REACTORS
330
27F
102
}
330
27F
100
AcDbXrecord
280
     1
 40
1.0
  0
XRECORD
  5
284
102
{ACAD_REACTORS
330
27F
102
}
330
27F
100
AcDbXrecord
280
     1
 40
10.0
  0
XRECORD
  5
28D
102
{ACAD_REACTORS
330
27F
102
}
330
27F
100
AcDbXrecord
280
     1
 40
10.0
  0
XRECORD
  5
280
102
{ACAD_REACTORS
330
27F
102
}
330
27F
100
AcDbXrecord
280
     1
 40
10.0
  0
XRECORD
  5
295
102
{ACAD_REACTORS
330
27F
102
}
330
27F
100
AcDbXrecord
280
     1
 40
10.0
  0
XRECORD
  5
282
102
{ACAD_REACTORS
330
27F
102
}
330
27F
100
AcDbXrecord
280
     1
290
     0
  0
XRECORD
  5
28E
102
{ACAD_REACTORS
330
27F
102
}
330
27F
100
AcDbXrecord
280
     1
 40
2.0
  0
XRECORD
  5
293
102
{ACAD_REACTORS
330
27F
102
}
330
27F
100
AcDbXrecord
280
     1
 40
16.49999999999999
  0
XRECORD
  5
294
102
{ACAD_REACTORS
330
27F
102
}
330
27F
100
AcDbXrecord
280
     1
 40
18.5
  0
XRECORD
  5
281
102
{ACAD_REACTORS
330
27F
102
}
330
27F
100
AcDbXrecord
280
     1
1000
Landscape
  0
XRECORD
  5
286
102
{ACAD_REACTORS
330
27F
102
}
330
27F
100
AcDbXrecord
280
     1
1000
297
 41
0.0
  0
XRECORD
  5
289
102
{ACAD_REACTORS
330
27F
102
}
330
27F
100
AcDbXrecord
280
     1
1000
ISO A4
  0
XRECORD
  5
28F
102
{ACAD_REACTORS
330
27F
102
}
330
27F
100
AcDbXrecord
280
     1
1000
210
 41
0.0
  0
XRECORD
  5
285
102
{ACAD_REACTORS
330
27F
102
}
330
27F
100
AcDbXrecord
280
     1
1000
1:1
  0
XRECORD
  5
28B
102
{ACAD_REACTORS
330
27F
102
}
330
27F
100
AcDbXrecord
280
     1
290
     0
  0
XRECORD
  5
292
102
{ACAD_REACTORS
330
27F
102
}
330
27F
100
AcDbXrecord
280
     1
290
     1
  0
XRECORD
  5
290
102
{ACAD_REACTORS
330
27F
102
}
330
27F
100
AcDbXrecord
280
     1
 90
        4
  0
ENDSEC
  0
EOF
